<svg width="233" height="171" viewBox="0 0 233 171" fill="none" xmlns="http://www.w3.org/2000/svg">
<g filter="url(#filter0_d)">
<rect x="199" width="30" height="30" fill="#DD0270" fill-opacity="0.5"/>
</g>
<g filter="url(#filter1_d)">
<rect x="34" y="97" width="30" height="30" fill="#DD0270" fill-opacity="0.5"/>
</g>
<g filter="url(#filter2_d)">
<rect x="4" y="97" width="30" height="30" fill="#DD0270" fill-opacity="0.75"/>
</g>
<g filter="url(#filter3_d)">
<rect x="4" y="31" width="225" height="67" fill="#DD0270"/>
</g>
<path d="M26.028 52.8C26.508 52.824 26.892 53.004 27.18 53.34C27.492 53.652 27.648 54.048 27.648 54.528V76.272C27.648 76.752 27.468 77.16 27.108 77.496C26.748 77.832 26.304 78 25.776 78C25.248 78 24.816 77.832 24.48 77.496C24.144 77.16 23.976 76.752 23.976 76.272V57.552L20.808 59.46C20.544 59.628 20.244 59.712 19.908 59.712C19.428 59.712 19.02 59.532 18.684 59.172C18.348 58.788 18.18 58.38 18.18 57.948C18.18 57.66 18.264 57.384 18.432 57.12C18.6 56.856 18.816 56.64 19.08 56.472L24.768 53.052C25.104 52.884 25.524 52.8 26.028 52.8ZM47.4691 74.832C47.9251 74.832 48.3091 74.988 48.6211 75.3C48.9331 75.612 49.0891 75.996 49.0891 76.452C49.0891 76.908 48.9331 77.28 48.6211 77.568C48.3091 77.856 47.9251 78 47.4691 78H34.6891C34.2091 78 33.8131 77.856 33.5011 77.568C33.1891 77.256 33.0331 76.848 33.0331 76.344C33.0331 75.912 33.2011 75.504 33.5371 75.12L41.5651 66.408C43.7971 64.032 44.9131 61.932 44.9131 60.108C44.9131 58.812 44.4811 57.744 43.6171 56.904C42.7771 56.04 41.6971 55.608 40.3771 55.608C39.4891 55.608 38.6371 55.86 37.8211 56.364C37.0051 56.868 36.3451 57.588 35.8411 58.524C35.4571 59.028 35.0011 59.28 34.4731 59.28C34.0651 59.28 33.6811 59.124 33.3211 58.812C32.9611 58.5 32.7811 58.14 32.7811 57.732C32.7811 57.468 32.8651 57.192 33.0331 56.904C33.2251 56.616 33.4891 56.28 33.8251 55.896C34.6171 54.84 35.6251 54 36.8491 53.376C38.0731 52.752 39.3091 52.44 40.5571 52.44C42.1651 52.44 43.5571 52.764 44.7331 53.412C45.9091 54.06 46.8091 54.948 47.4331 56.076C48.0811 57.204 48.4051 58.5 48.4051 59.964C48.4051 62.724 46.9171 65.7 43.9411 68.892L38.5051 74.832H47.4691ZM60.2789 62.052C61.6469 62.052 62.8709 62.4 63.9509 63.096C65.0549 63.768 65.9189 64.692 66.5429 65.868C67.1669 67.044 67.4789 68.364 67.4789 69.828C67.4789 71.532 67.0829 73.032 66.2909 74.328C65.4989 75.624 64.4069 76.62 63.0149 77.316C61.6229 78.012 60.0269 78.36 58.2269 78.36C57.2669 78.36 56.3309 78.228 55.4189 77.964C54.5309 77.7 53.7629 77.316 53.1149 76.812C52.4669 76.452 52.1429 75.96 52.1429 75.336C52.1429 74.88 52.2989 74.46 52.6109 74.076C52.9469 73.692 53.3429 73.5 53.7989 73.5C54.2309 73.5 54.6629 73.656 55.0949 73.968C56.0789 74.88 57.3149 75.336 58.8029 75.336C59.7389 75.336 60.6029 75.12 61.3949 74.688C62.2109 74.256 62.8589 73.644 63.3389 72.852C63.8189 72.036 64.0589 71.1 64.0589 70.044C64.0589 68.484 63.5789 67.284 62.6189 66.444C61.6589 65.604 60.5069 65.184 59.1629 65.184C58.7789 65.184 58.2269 65.268 57.5069 65.436C56.9789 65.58 56.5829 65.652 56.3189 65.652C55.8869 65.652 55.5389 65.508 55.2749 65.22C55.0109 64.908 54.8789 64.524 54.8789 64.068C54.8789 63.804 54.9269 63.576 55.0229 63.384C55.1189 63.192 55.2749 62.964 55.4909 62.7L61.6109 55.968H53.2949C52.8389 55.968 52.4549 55.812 52.1429 55.5C51.8309 55.188 51.6749 54.804 51.6749 54.348C51.6749 53.892 51.8309 53.52 52.1429 53.232C52.4549 52.944 52.8389 52.8 53.2949 52.8H64.7789C65.3309 52.8 65.7629 52.968 66.0749 53.304C66.3869 53.64 66.5429 54.048 66.5429 54.528C66.5429 54.96 66.3149 55.404 65.8589 55.86L60.2789 62.052ZM72.9323 77.964C72.3563 77.964 71.9123 77.808 71.6003 77.496C71.3123 77.184 71.1683 76.728 71.1683 76.128V75.444C71.1683 74.868 71.3123 74.424 71.6003 74.112C71.9123 73.8 72.3563 73.644 72.9323 73.644H73.2923C73.8923 73.644 74.3363 73.8 74.6243 74.112C74.9363 74.424 75.0923 74.868 75.0923 75.444V76.128C75.0923 77.352 74.4923 77.964 73.2923 77.964H72.9323ZM96.3937 67.632C96.8497 67.632 97.2337 67.788 97.5457 68.1C97.8577 68.388 98.0137 68.76 98.0137 69.216C98.0137 69.672 97.8577 70.044 97.5457 70.332C97.2337 70.62 96.8497 70.764 96.3937 70.764H94.4857V76.272C94.4857 76.752 94.3177 77.16 93.9817 77.496C93.6457 77.832 93.2377 78 92.7577 78C92.2777 78 91.8697 77.832 91.5337 77.496C91.2217 77.16 91.0657 76.752 91.0657 76.272V70.764H81.2017C80.7697 70.764 80.3737 70.596 80.0137 70.26C79.6777 69.924 79.5097 69.528 79.5097 69.072C79.5097 68.64 79.6417 68.256 79.9057 67.92L91.3897 53.484C91.5577 53.268 91.7617 53.1 92.0017 52.98C92.2657 52.86 92.5297 52.8 92.7937 52.8C93.2737 52.8 93.6697 52.968 93.9817 53.304C94.3177 53.64 94.4857 54.048 94.4857 54.528V67.632H96.3937ZM91.0657 67.632V58.632L84.0457 67.632H91.0657ZM109.877 61.152C111.437 61.152 112.853 61.512 114.125 62.232C115.397 62.928 116.393 63.912 117.113 65.184C117.833 66.432 118.193 67.836 118.193 69.396C118.193 71.052 117.761 72.552 116.897 73.896C116.057 75.24 114.893 76.308 113.405 77.1C111.941 77.868 110.333 78.252 108.581 78.252C107.597 78.252 106.613 78.096 105.629 77.784C104.645 77.472 103.817 77.04 103.145 76.488C102.905 76.296 102.713 76.044 102.569 75.732C102.425 75.42 102.353 75.108 102.353 74.796C102.353 74.436 102.497 74.112 102.785 73.824C103.097 73.512 103.493 73.356 103.973 73.356C104.285 73.356 104.705 73.536 105.233 73.896C106.313 74.688 107.417 75.084 108.545 75.084C109.697 75.084 110.741 74.832 111.677 74.328C112.637 73.824 113.393 73.14 113.945 72.276C114.497 71.412 114.773 70.464 114.773 69.432C114.773 67.896 114.269 66.66 113.261 65.724C112.253 64.788 110.981 64.32 109.445 64.32C108.797 64.32 108.221 64.404 107.717 64.572C107.237 64.74 106.649 64.992 105.953 65.328C105.665 65.472 105.377 65.604 105.089 65.724C104.825 65.82 104.597 65.868 104.405 65.868C103.709 65.868 103.193 65.664 102.857 65.256C102.521 64.848 102.353 64.38 102.353 63.852L102.389 63.492L103.685 54.168C103.757 53.784 103.949 53.46 104.261 53.196C104.597 52.932 104.993 52.8 105.449 52.8H116.033C116.489 52.8 116.861 52.956 117.149 53.268C117.461 53.58 117.617 53.964 117.617 54.42C117.617 54.876 117.461 55.26 117.149 55.572C116.861 55.86 116.489 56.004 116.033 56.004H106.637L105.701 62.16C106.229 61.872 106.865 61.632 107.609 61.44C108.377 61.248 109.133 61.152 109.877 61.152ZM124.507 77.964C123.931 77.964 123.487 77.808 123.175 77.496C122.887 77.184 122.743 76.728 122.743 76.128V75.444C122.743 74.868 122.887 74.424 123.175 74.112C123.487 73.8 123.931 73.644 124.507 73.644H124.867C125.467 73.644 125.911 73.8 126.199 74.112C126.511 74.424 126.667 74.868 126.667 75.444V76.128C126.667 77.352 126.067 77.964 124.867 77.964H124.507ZM139.256 61.836C140.576 61.836 141.824 62.22 143 62.988C144.176 63.732 145.112 64.74 145.808 66.012C146.528 67.284 146.888 68.652 146.888 70.116C146.888 71.604 146.528 72.984 145.808 74.256C145.088 75.504 144.104 76.5 142.856 77.244C141.608 77.988 140.228 78.36 138.716 78.36C136.988 78.36 135.488 77.916 134.216 77.028C132.968 76.14 132.008 74.976 131.336 73.536C130.664 72.096 130.328 70.548 130.328 68.892C130.328 67.044 130.688 65.016 131.408 62.808C132.128 60.576 133.304 58.512 134.936 56.616C136.592 54.696 138.704 53.328 141.272 52.512C141.488 52.44 141.704 52.404 141.92 52.404C142.424 52.404 142.832 52.536 143.144 52.8C143.48 53.064 143.648 53.484 143.648 54.06C143.648 54.468 143.516 54.828 143.252 55.14C142.988 55.452 142.628 55.668 142.172 55.788C140.492 56.388 138.932 57.42 137.492 58.884C136.052 60.348 135.02 61.992 134.396 63.816C135.812 62.496 137.432 61.836 139.256 61.836ZM138.68 75.192C140.048 75.192 141.188 74.712 142.1 73.752C143.012 72.792 143.468 71.58 143.468 70.116C143.468 68.7 143.024 67.5 142.136 66.516C141.272 65.508 140.144 65.004 138.752 65.004C137.312 65.004 136.124 65.508 135.188 66.516C134.276 67.5 133.82 68.724 133.82 70.188C133.82 71.58 134.264 72.768 135.152 73.752C136.064 74.712 137.24 75.192 138.68 75.192ZM164.815 52.8C165.319 52.8 165.739 52.956 166.075 53.268C166.435 53.58 166.615 53.976 166.615 54.456C166.615 54.696 166.555 54.96 166.435 55.248L156.787 77.064C156.643 77.4 156.427 77.664 156.139 77.856C155.851 78.048 155.539 78.144 155.203 78.144C154.747 78.144 154.339 77.988 153.979 77.676C153.619 77.364 153.439 76.98 153.439 76.524C153.439 76.284 153.499 76.02 153.619 75.732L162.403 55.968H151.999C151.543 55.968 151.159 55.812 150.847 55.5C150.535 55.188 150.379 54.804 150.379 54.348C150.379 53.892 150.523 53.52 150.811 53.232C151.123 52.944 151.519 52.8 151.999 52.8H164.815ZM171.721 77.964C171.145 77.964 170.701 77.808 170.389 77.496C170.101 77.184 169.957 76.728 169.957 76.128V75.444C169.957 74.868 170.101 74.424 170.389 74.112C170.701 73.8 171.145 73.644 171.721 73.644H172.081C172.681 73.644 173.125 73.8 173.413 74.112C173.725 74.424 173.881 74.868 173.881 75.444V76.128C173.881 77.352 173.281 77.964 172.081 77.964H171.721ZM190.647 64.968C191.799 65.616 192.711 66.456 193.383 67.488C194.079 68.52 194.427 69.624 194.427 70.8C194.427 72.12 194.067 73.344 193.347 74.472C192.627 75.576 191.643 76.464 190.395 77.136C189.147 77.784 187.779 78.108 186.291 78.108C184.803 78.108 183.435 77.784 182.187 77.136C180.939 76.464 179.955 75.576 179.235 74.472C178.515 73.344 178.155 72.12 178.155 70.8C178.155 69.504 178.491 68.376 179.163 67.416C179.859 66.432 180.747 65.628 181.827 65.004C180.939 64.5 180.207 63.816 179.631 62.952C179.055 62.064 178.767 61.032 178.767 59.856C178.767 58.56 179.103 57.372 179.775 56.292C180.447 55.212 181.347 54.36 182.475 53.736C183.627 53.112 184.899 52.8 186.291 52.8C187.659 52.8 188.919 53.112 190.071 53.736C191.223 54.36 192.123 55.212 192.771 56.292C193.443 57.372 193.779 58.56 193.779 59.856C193.779 61.08 193.479 62.124 192.879 62.988C192.279 63.828 191.535 64.488 190.647 64.968ZM186.291 55.968C185.091 55.968 184.107 56.34 183.339 57.084C182.571 57.828 182.187 58.776 182.187 59.928C182.187 61.056 182.583 62.004 183.375 62.772C184.167 63.516 185.139 63.888 186.291 63.888C187.419 63.888 188.379 63.516 189.171 62.772C189.963 62.004 190.359 61.056 190.359 59.928C190.359 58.776 189.975 57.828 189.207 57.084C188.439 56.34 187.467 55.968 186.291 55.968ZM186.291 74.94C187.635 74.94 188.751 74.544 189.639 73.752C190.551 72.96 191.007 71.964 191.007 70.764C191.007 69.564 190.539 68.556 189.603 67.74C188.691 66.924 187.587 66.516 186.291 66.516C184.995 66.516 183.891 66.924 182.979 67.74C182.067 68.556 181.611 69.564 181.611 70.764C181.611 71.964 182.055 72.96 182.943 73.752C183.831 74.544 184.947 74.94 186.291 74.94ZM206.563 52.368C208.291 52.368 209.779 52.812 211.027 53.7C212.299 54.588 213.259 55.752 213.907 57.192C214.579 58.632 214.915 60.18 214.915 61.836C214.915 63.684 214.555 65.7 213.835 67.884C213.115 70.068 211.939 72.108 210.307 74.004C208.675 75.876 206.575 77.22 204.007 78.036C203.791 78.108 203.575 78.144 203.359 78.144C202.879 78.144 202.459 78.012 202.099 77.748C201.763 77.46 201.595 77.04 201.595 76.488C201.595 76.08 201.727 75.72 201.991 75.408C202.255 75.096 202.615 74.88 203.071 74.76C204.775 74.16 206.347 73.152 207.787 71.736C209.251 70.32 210.283 68.7 210.883 66.876C209.491 68.22 207.871 68.892 206.023 68.892C204.703 68.892 203.443 68.52 202.243 67.776C201.067 67.008 200.119 65.988 199.399 64.716C198.703 63.42 198.355 62.04 198.355 60.576C198.355 59.112 198.715 57.756 199.435 56.508C200.179 55.236 201.175 54.228 202.423 53.484C203.671 52.74 205.051 52.368 206.563 52.368ZM206.491 65.688C207.955 65.688 209.143 65.196 210.055 64.212C210.991 63.228 211.459 62.004 211.459 60.54C211.459 59.148 211.003 57.972 210.091 57.012C209.179 56.028 208.003 55.536 206.563 55.536C205.219 55.536 204.091 56.016 203.179 56.976C202.267 57.936 201.811 59.136 201.811 60.576C201.811 62.016 202.243 63.228 203.107 64.212C203.995 65.196 205.123 65.688 206.491 65.688Z" fill="#FDFDFD"/>
<path d="M133.202 30.438C112.824 30.4362 96.862 26.7991 96.8624 22.1577C96.8627 19.3751 102.519 16.8928 112.381 15.3476C112.416 15.3419 112.452 15.3431 112.487 15.3511C112.522 15.3592 112.555 15.3739 112.584 15.3945C112.613 15.4151 112.637 15.4411 112.656 15.4711C112.675 15.501 112.687 15.5344 112.693 15.5691C112.698 15.6039 112.697 15.6394 112.689 15.6736C112.68 15.7078 112.665 15.74 112.644 15.7685C112.623 15.7969 112.596 15.8209 112.566 15.8392C112.535 15.8575 112.501 15.8697 112.466 15.875C103.176 17.3307 97.405 19.7381 97.4048 22.1578C97.4044 26.355 113.797 29.9022 133.202 29.904C152.606 29.9057 169 26.3613 169.001 22.1642C169.001 19.7343 163.193 17.32 153.844 15.8635C153.809 15.8582 153.775 15.846 153.745 15.8277C153.714 15.8094 153.688 15.7854 153.667 15.757C153.646 15.7286 153.63 15.6964 153.622 15.6622C153.614 15.6281 153.612 15.5926 153.618 15.5579C153.623 15.5232 153.636 15.49 153.655 15.46C153.673 15.4301 153.698 15.4041 153.727 15.3834C153.755 15.3628 153.788 15.348 153.823 15.3399C153.858 15.3318 153.894 15.3305 153.929 15.3361C163.852 16.882 169.543 19.3707 169.543 22.1642C169.543 26.8055 153.58 30.4398 133.202 30.438Z" fill="#3F3D56"/>
<path d="M115.173 31.9952C117.016 35.1037 119.657 37.6811 122.83 39.4695C126.003 41.2579 129.597 42.1946 133.253 42.1859C136.909 42.1771 140.499 41.2233 143.663 39.4197C146.827 37.6161 149.455 35.0261 151.283 31.9088C139.257 32.589 127.202 32.6179 115.173 31.9952Z" fill="#DD0270"/>
<path d="M153.282 26.2006C154.171 23.1325 154.323 19.9027 153.725 16.767C153.127 13.6313 151.795 10.6756 149.836 8.13397C147.878 5.59232 145.345 3.53443 142.438 2.12319C139.532 0.711942 136.332 -0.0139255 133.091 0.00302928C129.85 0.0199841 126.658 0.779299 123.767 2.22088C120.876 3.66245 118.366 5.74672 116.434 8.30873C114.503 10.8707 113.204 13.8401 112.64 16.982C112.075 20.1238 112.262 23.3518 113.184 26.4104C126.503 28.048 139.982 27.9775 153.282 26.2006Z" fill="#DD0270"/>
<path d="M138.086 11.481C139.434 11.481 140.527 10.4051 140.527 9.07799C140.527 7.75085 139.434 6.675 138.086 6.675C136.738 6.675 135.645 7.75085 135.645 9.07799C135.645 10.4051 136.738 11.481 138.086 11.481Z" fill="white"/>
<path d="M125.338 22.9613C127.585 22.9613 129.406 21.1682 129.406 18.9563C129.406 16.7444 127.585 14.9513 125.338 14.9513C123.092 14.9513 121.27 16.7444 121.27 18.9563C121.27 21.1682 123.092 22.9613 125.338 22.9613Z" fill="white"/>
<path d="M133.204 40.317C134.552 40.317 135.645 39.2411 135.645 37.914C135.645 36.5868 134.552 35.511 133.204 35.511C131.856 35.511 130.764 36.5868 130.764 37.914C130.764 39.2411 131.856 40.317 133.204 40.317Z" fill="white"/>
<path d="M17.6715 87.0419C18.72 87.0419 19.5699 86.2051 19.5699 85.1729C19.5699 84.1407 18.72 83.3039 17.6715 83.3039C16.6231 83.3039 15.7732 84.1407 15.7732 85.1729C15.7732 86.2051 16.6231 87.0419 17.6715 87.0419Z" fill="white"/>
<path d="M150.558 114.276C151.606 114.276 152.456 113.439 152.456 112.407C152.456 111.375 151.606 110.538 150.558 110.538C149.509 110.538 148.659 111.375 148.659 112.407C148.659 113.439 149.509 114.276 150.558 114.276Z" fill="white"/>
<path d="M85.7234 52.6203C85.7234 57.3391 90.1552 56.6253 95.6221 56.6253C101.089 56.6253 105.521 57.3391 105.521 52.6203C105.521 47.9016 103.356 39.5374 95.6221 39.5374C87.6218 39.5374 85.7234 47.9016 85.7234 52.6203Z" fill="#2F2E41"/>
<path d="M73.5941 92.5777C73.3958 92.2066 73.2825 91.7972 73.2623 91.3784C73.2421 90.9595 73.3154 90.5414 73.4771 90.1535C73.6388 89.7655 73.8849 89.4172 74.1981 89.133C74.5113 88.8489 74.8839 88.6357 75.2898 88.5087L86.6302 64.8902L91.8176 68.4714L79.0392 90.5616C79.2108 91.2471 79.121 91.9707 78.7868 92.5953C78.4527 93.22 77.8974 93.7023 77.2262 93.9508C76.555 94.1993 75.8146 94.1968 75.1452 93.9437C74.4757 93.6906 73.9239 93.2046 73.5941 92.5777V92.5777Z" fill="#FFB8B8"/>
<path d="M83.3116 68.0259C83.2576 67.8489 83.243 67.6625 83.2688 67.4795C83.2947 67.2964 83.3603 67.121 83.4613 66.9652L86.9872 61.5232C87.3791 60.6599 88.1028 59.9849 88.9994 59.6461C89.8961 59.3073 90.8926 59.3324 91.7705 59.7158C92.6485 60.0993 93.3361 60.8098 93.6827 61.6917C94.0293 62.5735 94.0066 63.5547 93.6196 64.4201L91.8435 70.6554C91.7928 70.8333 91.7037 70.9984 91.5823 71.1395C91.461 71.2805 91.3102 71.3941 91.1402 71.4725C90.9703 71.551 90.7851 71.5924 90.5974 71.5941C90.4097 71.5957 90.2238 71.5576 90.0525 71.4821L84.0296 68.8306C83.8581 68.7552 83.7053 68.6443 83.5813 68.5054C83.4574 68.3666 83.3654 68.203 83.3116 68.0259Z" fill="#DD0270"/>
<path d="M114.773 138.22L111.649 139.34L105.775 128.009L110.386 126.356L114.773 138.22Z" fill="#FFB8B8"/>
<path d="M109.092 139.261L115.118 137.101L116.499 140.836L106.68 144.356C106.499 143.866 106.417 143.345 106.44 142.823C106.463 142.302 106.591 141.79 106.815 141.317C107.039 140.844 107.355 140.419 107.746 140.066C108.137 139.713 108.594 139.44 109.092 139.261Z" fill="#2F2E41"/>
<path d="M106.244 131.053L94.3424 110.547C94.2274 110.348 94.1681 110.123 94.1706 109.895C94.1731 109.667 94.2372 109.443 94.3565 109.247L99.716 100.453C99.8431 100.244 100.028 100.075 100.248 99.9659C100.469 99.8564 100.717 99.8108 100.962 99.8343C101.208 99.8578 101.442 99.9495 101.638 100.099C101.833 100.248 101.981 100.449 102.065 100.677L112.198 128.303C112.309 128.604 112.302 128.935 112.178 129.231C112.054 129.527 111.823 129.767 111.528 129.903L107.938 131.577C107.764 131.658 107.575 131.7 107.383 131.7C107.153 131.7 106.926 131.64 106.726 131.527C106.526 131.413 106.36 131.25 106.244 131.053Z" fill="#2F2E41"/>
<path d="M95.1997 56.3692C98.8784 56.3692 101.861 53.4332 101.861 49.8114C101.861 46.1897 98.8784 43.2536 95.1997 43.2536C91.521 43.2536 88.5388 46.1897 88.5388 49.8114C88.5388 53.4332 91.521 56.3692 95.1997 56.3692Z" fill="#FFB8B8"/>
<path d="M85.7254 79.5155C80.4799 68.0643 85.7681 61.6642 88.2852 59.4442C89.0101 58.8039 89.95 58.45 90.9239 58.4506H100.307C100.981 58.4506 101.644 58.6202 102.232 58.9432C102.821 59.2663 103.316 59.7321 103.67 60.2964C104.024 60.8607 104.226 61.5048 104.256 62.1675C104.286 62.8302 104.144 63.4896 103.843 64.0829L97.5702 76.434L85.7764 79.6271L85.7254 79.5155Z" fill="#DD0270"/>
<path d="M93.3111 141.317L89.9862 141.316L88.4046 128.69L93.3117 128.691L93.3111 141.317Z" fill="#FFB8B8"/>
<path d="M87.6114 140.381H94.0235V144.356H83.5742C83.5742 143.302 83.9995 142.291 84.7566 141.545C85.5138 140.8 86.5407 140.381 87.6114 140.381Z" fill="#2F2E41"/>
<path d="M91.9023 136.496L86.5791 135.892C86.4069 135.872 86.2402 135.819 86.089 135.736C85.9378 135.652 85.8051 135.539 85.6985 135.405C85.5919 135.27 85.5136 135.116 85.4681 134.951C85.4227 134.786 85.4111 134.614 85.4339 134.445L90.1848 99.2276C90.2013 99.1049 90.1946 98.9803 90.165 98.86L85.3899 79.4639C85.3448 79.285 85.3396 79.0986 85.3749 78.9176C85.4102 78.7366 85.4851 78.5653 85.5943 78.4156C86.3348 77.4105 88.8719 75.0683 96.4189 75.0239H96.4271C96.6784 75.024 96.9244 75.0951 97.1358 75.2289C97.3473 75.3627 97.5152 75.5535 97.6195 75.7786L98.6263 77.959C98.7012 78.1208 98.8185 78.2602 98.966 78.3628C100.352 79.3285 107.064 84.7489 103.123 96.6492C99.2489 108.346 94.2854 131.053 93.3297 135.487C93.2687 135.775 93.1087 136.033 92.8767 136.219C92.6446 136.404 92.3546 136.506 92.0557 136.505C92.0044 136.505 91.9532 136.502 91.9023 136.496Z" fill="#2F2E41"/>
<path d="M118.381 51.4574C118.394 51.6046 118.419 51.7505 118.455 51.8939L109.412 61.6948L106.218 61.0171L104.549 65.6292L110.085 67.37C110.532 67.5106 111.013 67.5046 111.457 67.3529C111.9 67.2012 112.282 66.9119 112.544 66.5286L121.093 54.0342C121.67 54.0595 122.242 53.9111 122.732 53.6087C123.221 53.3063 123.606 52.8643 123.834 52.3414C124.063 51.8186 124.124 51.2397 124.01 50.6817C123.896 50.1237 123.612 49.6131 123.196 49.2178C122.78 48.8225 122.252 48.5613 121.682 48.4688C121.111 48.3763 120.526 48.457 120.003 48.7001C119.48 48.9432 119.045 49.3373 118.756 49.8298C118.466 50.3223 118.335 50.89 118.381 51.4574H118.381Z" fill="#FFB8B8"/>
<path d="M109.138 62.1103L107.041 67.8167C106.982 67.979 106.887 68.1268 106.764 68.25C106.641 68.3732 106.493 68.4688 106.329 68.5304C106.165 68.592 105.99 68.6181 105.815 68.607C105.64 68.5958 105.469 68.5476 105.315 68.4658L99.9052 65.5963C99.0628 65.2913 98.3778 64.6698 98.0002 63.8682C97.6227 63.0666 97.5835 62.1503 97.8912 61.3203C98.199 60.4902 98.8286 59.8143 99.6419 59.4407C100.455 59.0671 101.386 59.0263 102.23 59.3273L108.233 60.5241C108.405 60.5584 108.567 60.6288 108.709 60.7304C108.851 60.8321 108.968 60.9626 109.054 61.1131C109.14 61.2637 109.192 61.4307 109.207 61.6027C109.221 61.7748 109.198 61.9479 109.138 62.1103V62.1103Z" fill="#DD0270"/>
<path d="M103.351 49.4164H100.717L99.5545 46.2124L99.3221 49.4164H98.0629L97.3849 47.5474L97.2493 49.4164H87.893C87.893 47.5752 88.6359 45.8095 89.9583 44.5076C91.2806 43.2057 93.0741 42.4744 94.9441 42.4744H96.3001C98.1702 42.4744 99.9636 43.2057 101.286 44.5076C102.608 45.8095 103.351 47.5752 103.351 49.4164Z" fill="#2F2E41"/>
<path d="M32.9941 118.014H32.0449V117.079C32.0449 116.761 31.9164 116.455 31.6875 116.23C31.4586 116.004 31.1482 115.878 30.8245 115.878C30.5009 115.878 30.1905 116.004 29.9616 116.23C29.7327 116.455 29.6042 116.761 29.6042 117.079V118.014H28.655C28.3313 118.014 28.0209 118.14 27.792 118.366C27.5632 118.591 27.4346 118.897 27.4346 119.215C27.4346 119.534 27.5632 119.84 27.792 120.065C28.0209 120.29 28.3313 120.417 28.655 120.417H29.6042V121.351C29.6042 121.67 29.7327 121.976 29.9616 122.201C30.1905 122.426 30.5009 122.553 30.8245 122.553C31.1482 122.553 31.4586 122.426 31.6875 122.201C31.9164 121.976 32.0449 121.67 32.0449 121.351V120.417H32.9941C33.3178 120.417 33.6282 120.29 33.8571 120.065C34.0859 119.84 34.2145 119.534 34.2145 119.215C34.2145 118.897 34.0859 118.591 33.8571 118.366C33.6282 118.14 33.3178 118.014 32.9941 118.014Z" fill="white"/>
<path d="M172.703 95.0946H172.21V94.6087C172.21 94.443 172.143 94.2841 172.024 94.1669C171.905 94.0497 171.744 93.9839 171.575 93.9839C171.407 93.9839 171.245 94.0497 171.126 94.1669C171.007 94.2841 170.941 94.443 170.941 94.6087V95.0946H170.447C170.279 95.0946 170.117 95.1605 169.998 95.2776C169.879 95.3948 169.812 95.5537 169.812 95.7194C169.812 95.8851 169.879 96.044 169.998 96.1612C170.117 96.2784 170.279 96.3442 170.447 96.3442H170.941V96.8301C170.941 96.9958 171.007 97.1547 171.126 97.2719C171.245 97.3891 171.407 97.4549 171.575 97.4549C171.744 97.4549 171.905 97.3891 172.024 97.2719C172.143 97.1547 172.21 96.9958 172.21 96.8301V96.3442H172.703C172.872 96.3442 173.033 96.2784 173.152 96.1612C173.271 96.044 173.338 95.8851 173.338 95.7194C173.338 95.5537 173.271 95.3948 173.152 95.2776C173.033 95.1605 172.872 95.0946 172.703 95.0946Z" fill="#FF6584"/>
<path d="M28.6983 62.7876H28.2048V62.3017C28.2048 62.2196 28.1884 62.1384 28.1565 62.0626C28.1246 61.9868 28.0778 61.9179 28.0189 61.8599C27.96 61.8019 27.89 61.7559 27.813 61.7245C27.736 61.6931 27.6535 61.6769 27.5702 61.6769C27.4868 61.6769 27.4043 61.6931 27.3273 61.7245C27.2503 61.7559 27.1804 61.8019 27.1214 61.8599C27.0625 61.9179 27.0158 61.9868 26.9839 62.0626C26.952 62.1384 26.9356 62.2196 26.9356 62.3017V62.7876H26.442C26.2737 62.7876 26.1123 62.8535 25.9933 62.9706C25.8743 63.0878 25.8074 63.2467 25.8074 63.4124C25.8074 63.5781 25.8743 63.737 25.9933 63.8542C26.1123 63.9714 26.2737 64.0372 26.442 64.0372H26.9356V64.5231C26.9356 64.6052 26.952 64.6864 26.9839 64.7622C27.0158 64.838 27.0625 64.9069 27.1214 64.9649C27.1804 65.0229 27.2503 65.069 27.3273 65.1004C27.4043 65.1318 27.4868 65.1479 27.5702 65.1479C27.6535 65.1479 27.736 65.1318 27.813 65.1004C27.89 65.069 27.96 65.0229 28.0189 64.9649C28.0778 64.9069 28.1246 64.838 28.1565 64.7622C28.1884 64.6864 28.2048 64.6052 28.2048 64.5231V64.0372H28.6983C28.8667 64.0372 29.0281 63.9714 29.1471 63.8542C29.2661 63.737 29.3329 63.5781 29.3329 63.4124C29.3329 63.2467 29.2661 63.0878 29.1471 62.9706C29.0281 62.8535 28.8667 62.7876 28.6983 62.7876Z" fill="#DD0270"/>
<path d="M65.3098 62.7876H64.8162V62.3017C64.8162 62.136 64.7494 61.9771 64.6304 61.8599C64.5113 61.7427 64.3499 61.6769 64.1816 61.6769C64.0133 61.6769 63.8519 61.7427 63.7329 61.8599C63.6139 61.9771 63.547 62.136 63.547 62.3017V62.7876H63.0535C62.8851 62.7876 62.7237 62.8535 62.6047 62.9706C62.4857 63.0878 62.4189 63.2467 62.4189 63.4124C62.4189 63.5781 62.4857 63.737 62.6047 63.8542C62.7237 63.9714 62.8851 64.0372 63.0535 64.0372H63.547V64.5231C63.547 64.6888 63.6139 64.8478 63.7329 64.9649C63.8519 65.0821 64.0133 65.1479 64.1816 65.1479C64.3499 65.1479 64.5113 65.0821 64.6304 64.9649C64.7494 64.8478 64.8162 64.6888 64.8162 64.5231V64.0372H65.3098C65.4781 64.0372 65.6395 63.9714 65.7585 63.8542C65.8775 63.737 65.9444 63.5781 65.9444 63.4124C65.9444 63.2467 65.8775 63.0878 65.7585 62.9706C65.6395 62.8535 65.4781 62.7876 65.3098 62.7876Z" fill="white"/>
<path d="M191.416 126.868H190.922V126.382C190.922 126.216 190.855 126.057 190.736 125.94C190.617 125.823 190.456 125.757 190.288 125.757C190.119 125.757 189.958 125.823 189.839 125.94C189.72 126.057 189.653 126.216 189.653 126.382V126.868H189.16C188.991 126.868 188.83 126.933 188.711 127.051C188.592 127.168 188.525 127.327 188.525 127.492C188.525 127.658 188.592 127.817 188.711 127.934C188.83 128.051 188.991 128.117 189.16 128.117H189.653V128.603C189.653 128.769 189.72 128.928 189.839 129.045C189.958 129.162 190.119 129.228 190.288 129.228C190.456 129.228 190.617 129.162 190.736 129.045C190.855 128.928 190.922 128.769 190.922 128.603V128.117H191.416C191.584 128.117 191.746 128.051 191.865 127.934C191.984 127.817 192.051 127.658 192.051 127.492C192.051 127.327 191.984 127.168 191.865 127.051C191.746 126.933 191.584 126.868 191.416 126.868Z" fill="white"/>
<path d="M134.465 74.8026H133.971V74.3167C133.971 74.151 133.904 73.9921 133.785 73.8749C133.666 73.7577 133.505 73.6919 133.337 73.6919C133.168 73.6919 133.007 73.7577 132.888 73.8749C132.769 73.9921 132.702 74.151 132.702 74.3167V74.8026H132.208C132.04 74.8026 131.879 74.8685 131.76 74.9856C131.641 75.1028 131.574 75.2617 131.574 75.4274C131.574 75.5931 131.641 75.752 131.76 75.8692C131.879 75.9864 132.04 76.0522 132.208 76.0522H132.702V76.5381C132.702 76.7038 132.769 76.8627 132.888 76.9799C133.007 77.0971 133.168 77.1629 133.337 77.1629C133.505 77.1629 133.666 77.0971 133.785 76.9799C133.904 76.8627 133.971 76.7038 133.971 76.5381V76.0522H134.465C134.633 76.0522 134.794 75.9864 134.913 75.8692C135.033 75.752 135.099 75.5931 135.099 75.4274C135.099 75.2617 135.033 75.1028 134.913 74.9856C134.794 74.8685 134.633 74.8026 134.465 74.8026Z" fill="white"/>
<path d="M47.4109 88.1526H46.9173V87.6667C46.9173 87.501 46.8504 87.3421 46.7314 87.2249C46.6124 87.1077 46.451 87.0419 46.2827 87.0419C46.1144 87.0419 45.953 87.1077 45.834 87.2249C45.715 87.3421 45.6481 87.501 45.6481 87.6667V88.1526H45.1545C44.9862 88.1526 44.8248 88.2184 44.7058 88.3356C44.5868 88.4528 44.5199 88.6117 44.5199 88.7774C44.5199 88.9431 44.5868 89.102 44.7058 89.2192C44.8248 89.3363 44.9862 89.4022 45.1545 89.4022H45.6481V89.8881C45.6481 90.0538 45.715 90.2127 45.834 90.3299C45.953 90.4471 46.1144 90.5129 46.2827 90.5129C46.451 90.5129 46.6124 90.4471 46.7314 90.3299C46.8504 90.2127 46.9173 90.0538 46.9173 89.8881V89.4022H47.4109C47.5792 89.4022 47.7406 89.3363 47.8596 89.2192C47.9786 89.102 48.0455 88.9431 48.0455 88.7774C48.0455 88.6117 47.9786 88.4528 47.8596 88.3356C47.7406 88.2184 47.5792 88.1526 47.4109 88.1526Z" fill="white"/>
<path d="M49.038 44.9198H48.5445V44.4339C48.5445 44.2682 48.4776 44.1093 48.3586 43.9921C48.2396 43.8749 48.0782 43.8091 47.9099 43.8091C47.7416 43.8091 47.5802 43.8749 47.4611 43.9921C47.3421 44.1093 47.2753 44.2682 47.2753 44.4339V44.9198H46.7817C46.6134 44.9198 46.452 44.9857 46.333 45.1028C46.214 45.22 46.1471 45.3789 46.1471 45.5446C46.1471 45.7103 46.214 45.8692 46.333 45.9864C46.452 46.1036 46.6134 46.1694 46.7817 46.1694H47.2753V46.6553C47.2753 46.821 47.3421 46.98 47.4611 47.0971C47.5802 47.2143 47.7416 47.2801 47.9099 47.2801C48.0782 47.2801 48.2396 47.2143 48.3586 47.0971C48.4776 46.98 48.5445 46.821 48.5445 46.6553V46.1694H49.038C49.2064 46.1694 49.3678 46.1036 49.4868 45.9864C49.6058 45.8692 49.6726 45.7103 49.6726 45.5446C49.6726 45.3789 49.6058 45.22 49.4868 45.1028C49.3678 44.9857 49.2064 44.9198 49.038 44.9198Z" fill="white"/>
<defs>
<filter id="filter0_d" x="195" y="0" width="38" height="38" filterUnits="userSpaceOnUse" color-interpolation-filters="sRGB">
<feFlood flood-opacity="0" result="BackgroundImageFix"/>
<feColorMatrix in="SourceAlpha" type="matrix" values="0 0 0 0 0 0 0 0 0 0 0 0 0 0 0 0 0 0 127 0" result="hardAlpha"/>
<feOffset dy="4"/>
<feGaussianBlur stdDeviation="2"/>
<feColorMatrix type="matrix" values="0 0 0 0 0 0 0 0 0 0 0 0 0 0 0 0 0 0 0.25 0"/>
<feBlend mode="normal" in2="BackgroundImageFix" result="effect1_dropShadow"/>
<feBlend mode="normal" in="SourceGraphic" in2="effect1_dropShadow" result="shape"/>
</filter>
<filter id="filter1_d" x="30" y="97" width="38" height="38" filterUnits="userSpaceOnUse" color-interpolation-filters="sRGB">
<feFlood flood-opacity="0" result="BackgroundImageFix"/>
<feColorMatrix in="SourceAlpha" type="matrix" values="0 0 0 0 0 0 0 0 0 0 0 0 0 0 0 0 0 0 127 0" result="hardAlpha"/>
<feOffset dy="4"/>
<feGaussianBlur stdDeviation="2"/>
<feColorMatrix type="matrix" values="0 0 0 0 0 0 0 0 0 0 0 0 0 0 0 0 0 0 0.25 0"/>
<feBlend mode="normal" in2="BackgroundImageFix" result="effect1_dropShadow"/>
<feBlend mode="normal" in="SourceGraphic" in2="effect1_dropShadow" result="shape"/>
</filter>
<filter id="filter2_d" x="0" y="97" width="38" height="38" filterUnits="userSpaceOnUse" color-interpolation-filters="sRGB">
<feFlood flood-opacity="0" result="BackgroundImageFix"/>
<feColorMatrix in="SourceAlpha" type="matrix" values="0 0 0 0 0 0 0 0 0 0 0 0 0 0 0 0 0 0 127 0" result="hardAlpha"/>
<feOffset dy="4"/>
<feGaussianBlur stdDeviation="2"/>
<feColorMatrix type="matrix" values="0 0 0 0 0 0 0 0 0 0 0 0 0 0 0 0 0 0 0.25 0"/>
<feBlend mode="normal" in2="BackgroundImageFix" result="effect1_dropShadow"/>
<feBlend mode="normal" in="SourceGraphic" in2="effect1_dropShadow" result="shape"/>
</filter>
<filter id="filter3_d" x="0" y="31" width="233" height="75" filterUnits="userSpaceOnUse" color-interpolation-filters="sRGB">
<feFlood flood-opacity="0" result="BackgroundImageFix"/>
<feColorMatrix in="SourceAlpha" type="matrix" values="0 0 0 0 0 0 0 0 0 0 0 0 0 0 0 0 0 0 127 0" result="hardAlpha"/>
<feOffset dy="4"/>
<feGaussianBlur stdDeviation="2"/>
<feColorMatrix type="matrix" values="0 0 0 0 0 0 0 0 0 0 0 0 0 0 0 0 0 0 0.25 0"/>
<feBlend mode="normal" in2="BackgroundImageFix" result="effect1_dropShadow"/>
<feBlend mode="normal" in="SourceGraphic" in2="effect1_dropShadow" result="shape"/>
</filter>
</defs>
</svg>
