<svg width="233" height="170" viewBox="0 0 233 170" fill="none" xmlns="http://www.w3.org/2000/svg">
<g filter="url(#filter0_d)">
<rect x="199" y="16" width="30" height="30" fill="#DD0270" fill-opacity="0.5"/>
</g>
<g filter="url(#filter1_d)">
<rect x="34" y="113" width="30" height="30" fill="#DD0270" fill-opacity="0.5"/>
</g>
<g filter="url(#filter2_d)">
<rect x="4" y="113" width="30" height="30" fill="#DD0270" fill-opacity="0.75"/>
</g>
<g filter="url(#filter3_d)">
<rect x="4" y="47" width="225" height="67" fill="#DD0270" fill-opacity="0.75"/>
</g>
<g clip-path="url(#clip0)">
<path d="M131.959 102.175H101.758C101.069 102.177 100.387 102.033 99.7667 101.753C99.1459 101.474 98.602 101.067 98.1762 100.563C97.743 100.055 97.4403 99.4613 97.2913 98.828C97.1423 98.1947 97.151 97.5382 97.3165 96.9085C100.093 86.112 100.093 74.8605 97.3163 64.064C97.1509 63.4343 97.1423 62.7778 97.2913 62.1446C97.4403 61.5113 97.7429 60.9179 98.1761 60.4096C98.6019 59.9058 99.1459 59.4987 99.7666 59.2194C100.387 58.9401 101.069 58.7959 101.758 58.7979H131.959C133.047 58.8009 134.098 59.1623 134.926 59.8177C135.753 60.4732 136.304 61.3801 136.478 62.3769C138.469 74.3791 138.469 86.5935 136.478 98.5958C136.304 99.5926 135.753 100.5 134.926 101.155C134.098 101.81 133.047 102.172 131.959 102.175Z" fill="#F2F2F2"/>
<path d="M191.083 101H155.207C154.422 101.002 153.646 100.864 152.939 100.596C152.233 100.329 151.613 99.9388 151.128 99.4561C150.635 98.9689 150.29 98.4002 150.12 97.7932C149.951 97.1862 149.961 96.557 150.149 95.9535C153.456 85.1364 153.456 73.8634 150.149 63.0464C149.96 62.4428 149.951 61.8137 150.12 61.2067C150.29 60.5998 150.635 60.0311 151.128 59.5439C151.613 59.0612 152.232 58.6713 152.939 58.4037C153.646 58.1362 154.422 57.9981 155.207 58H191.083C192.321 58.0028 193.519 58.3489 194.461 58.9767C195.404 59.6044 196.03 60.4731 196.229 61.428C198.59 73.4054 198.59 85.5946 196.229 97.572C196.03 98.5269 195.404 99.3956 194.461 100.023C193.519 100.651 192.321 100.997 191.083 101Z" fill="#E6E6E6"/>
<path d="M154.53 60C154.149 59.999 153.773 60.0656 153.431 60.1947C153.088 60.3238 152.788 60.512 152.552 60.745C152.31 60.9838 152.141 61.2623 152.059 61.5595C151.976 61.8567 151.981 62.1647 152.074 62.4601C155.511 73.6626 155.511 85.3374 152.074 96.5399C151.981 96.8352 151.976 97.1432 152.059 97.4403C152.141 97.7374 152.31 98.0159 152.552 98.2546L152.553 98.2548C152.788 98.4879 153.088 98.6761 153.431 98.8053C153.773 98.9344 154.149 99.001 154.53 99H190.743C191.343 99.0001 191.924 98.8345 192.382 98.5325C192.84 98.2305 193.146 97.8117 193.244 97.3509C195.585 85.52 195.585 73.48 193.244 61.6491C193.146 61.1883 192.84 60.7695 192.382 60.4675C191.924 60.1655 191.343 59.9998 190.743 60L154.53 60Z" fill="white"/>
<path d="M187.877 76H159.123C158.03 75.9992 156.982 75.6904 156.209 75.1415C155.436 74.5926 155.001 73.8484 155 73.0721V71.9279C155.001 71.1516 155.436 70.4074 156.209 69.8585C156.982 69.3096 158.03 69.0008 159.123 69H187.877C188.97 69.0008 190.018 69.3096 190.791 69.8585C191.564 70.4074 191.999 71.1516 192 71.9279V73.0721C191.999 73.8484 191.564 74.5926 190.791 75.1415C190.018 75.6904 188.97 75.9992 187.877 76Z" fill="#E6E6E6"/>
<path d="M188.877 86H160.123C159.03 85.9993 157.982 85.7346 157.209 85.2641C156.436 84.7936 156.001 84.1557 156 83.4904V82.5096C156.001 81.8443 156.436 81.2063 157.209 80.7358C157.982 80.2654 159.03 80.0007 160.123 80H188.877C189.97 80.0007 191.018 80.2654 191.791 80.7358C192.564 81.2063 192.999 81.8443 193 82.5096V83.4904C192.999 84.1557 192.564 84.7936 191.791 85.2641C191.018 85.7346 189.97 85.9993 188.877 86Z" fill="#E6E6E6"/>
<path d="M116.943 88.4281C121.754 88.4281 125.654 84.8075 125.654 80.3413C125.654 75.875 121.754 72.2544 116.943 72.2544C112.132 72.2544 108.232 75.875 108.232 80.3413C108.232 84.8075 112.132 88.4281 116.943 88.4281Z" fill="white"/>
<path d="M121.109 79.2865H118.079V76.4736C118.079 76.1939 117.96 75.9256 117.747 75.7278C117.533 75.53 117.244 75.4188 116.943 75.4188C116.642 75.4188 116.353 75.53 116.14 75.7278C115.927 75.9256 115.807 76.1939 115.807 76.4736V79.2865H112.777C112.476 79.2865 112.187 79.3976 111.974 79.5954C111.761 79.7932 111.641 80.0615 111.641 80.3413C111.641 80.621 111.761 80.8893 111.974 81.0871C112.187 81.2849 112.476 81.3961 112.777 81.3961H115.807V84.2089C115.807 84.4886 115.927 84.7569 116.14 84.9547C116.353 85.1526 116.642 85.2637 116.943 85.2637C117.244 85.2637 117.533 85.1526 117.747 84.9547C117.96 84.7569 118.079 84.4886 118.079 84.2089V81.3961H121.109C121.41 81.3961 121.699 81.2849 121.913 81.0871C122.126 80.8893 122.245 80.621 122.245 80.3413C122.245 80.0615 122.126 79.7932 121.913 79.5954C121.699 79.3976 121.41 79.2865 121.109 79.2865Z" fill="#E6E6E6"/>
<path d="M47.554 165.626H52.1972L53.6489 149H47.5533L47.554 165.626Z" fill="#FFB8B8"/>
<path d="M46.3698 164.219L55.5138 164.219H55.5142C56.2794 164.219 57.0372 164.359 57.7442 164.631C58.4512 164.902 59.0936 165.301 59.6347 165.803C60.1758 166.306 60.6051 166.902 60.8979 167.558C61.1908 168.215 61.3415 168.918 61.3415 169.629V169.804L46.3701 169.805L46.3698 164.219Z" fill="#2F2E41"/>
<path d="M22.5578 165.626H27.201L29.4102 149H22.557L22.5578 165.626Z" fill="#FFB8B8"/>
<path d="M21.3736 164.219L30.5176 164.219H30.5179C31.2832 164.219 32.041 164.359 32.748 164.631C33.455 164.902 34.0974 165.301 34.6385 165.803C35.1796 166.306 35.6088 166.902 35.9017 167.558C36.1945 168.215 36.3453 168.918 36.3453 169.629V169.804L21.3739 169.805L21.3736 164.219Z" fill="#2F2E41"/>
<path d="M23.3816 160.374C22.908 160.374 22.4517 160.208 22.1034 159.91C21.9164 159.752 21.7659 159.56 21.6607 159.347C21.5555 159.133 21.498 158.902 21.4915 158.667L19.6294 96.7097L46.069 102.846L54.2267 125.566C55.2786 128.488 55.734 131.568 55.5694 134.646L54.5565 156.669C54.5334 157.12 54.324 157.546 53.9717 157.857C53.6195 158.169 53.1515 158.342 52.665 158.342H48.2304C47.7727 158.34 47.331 158.185 46.9863 157.906C46.6416 157.626 46.4171 157.241 46.3539 156.82L43.1843 132.509C42.9073 130.613 42.1927 128.794 41.0893 127.178L34.8518 118.009C34.8101 117.948 34.749 117.9 34.6769 117.872C34.6049 117.845 34.5253 117.838 34.4491 117.854C34.373 117.87 34.3039 117.907 34.2514 117.96C34.1989 118.014 34.1655 118.081 34.1558 118.153L29.2609 158.619C29.2083 159.029 29.0015 159.409 28.6768 159.692C28.3521 159.975 27.9303 160.142 27.4858 160.165L23.4894 160.371C23.4534 160.373 23.4176 160.374 23.3816 160.374Z" fill="#2F2E41"/>
<path d="M41.6691 56.5965C46.8065 56.5965 50.9712 52.7302 50.9712 47.9608C50.9712 43.1914 46.8065 39.325 41.6691 39.325C36.5318 39.325 32.3671 43.1914 32.3671 47.9608C32.3671 52.7302 36.5318 56.5965 41.6691 56.5965Z" fill="#FFB8B8"/>
<path d="M45.9423 105.366C45.7823 105.365 45.6228 105.347 45.4678 105.31H45.4675L19.235 99.0653C18.766 98.9538 18.3608 98.6797 18.1028 98.2994C17.8448 97.9191 17.7535 97.4615 17.8478 97.0206L23.8723 66.8914C24.2476 65.1498 25.0727 63.5188 26.2766 62.1385C27.4804 60.7581 29.0272 59.6696 30.784 58.9665C32.4959 58.2631 34.3678 57.9618 36.2348 58.089C38.1018 58.2162 39.9063 58.7682 41.4891 59.6961C41.8564 59.9088 42.2263 60.1408 42.5884 60.3856C44.0461 61.3839 45.2348 62.6821 46.0614 64.1785C46.8879 65.6748 47.3298 67.3286 47.3524 69.0101L47.8314 103.583C47.8346 103.815 47.7882 104.046 47.6948 104.262C47.6014 104.478 47.4629 104.674 47.2872 104.84C47.1116 105.006 46.9023 105.137 46.6714 105.228C46.4406 105.318 46.1928 105.365 45.9423 105.366Z" fill="#DD0270"/>
<path d="M21.9341 105.72C21.6212 105.292 21.413 104.806 21.3243 104.296C21.2356 103.786 21.2685 103.264 21.4207 102.767C21.5728 102.269 21.8406 101.809 22.205 101.418C22.5695 101.028 23.0218 100.716 23.5301 100.505L22.3633 87.9872L28.5465 91.0983L28.7065 102.508C29.0316 103.325 29.0228 104.223 28.6819 105.034C28.341 105.845 27.6917 106.511 26.8569 106.907C26.0221 107.303 25.0599 107.401 24.1526 107.182C23.2453 106.963 22.456 106.443 21.9341 105.72H21.9341Z" fill="#FFB8B8"/>
<path d="M24.1431 98.8494C23.9687 98.8492 23.7949 98.8288 23.6259 98.7886C23.2624 98.7025 22.9306 98.5268 22.6658 98.2801C22.401 98.0334 22.213 97.7248 22.1216 97.387L19.083 86.1765C18.0211 82.2612 18.5273 78.121 20.5075 74.5263L26.8735 62.9649C27.2759 61.5807 28.2482 60.3988 29.5808 59.674C30.9133 58.9493 32.4993 58.7398 33.9967 59.0907C34.743 59.2657 35.4445 59.5765 36.0605 60.005C36.6765 60.4336 37.1947 60.9714 37.5851 61.5873C37.9835 62.2121 38.2441 62.9041 38.3517 63.6232C38.4592 64.3424 38.4116 65.0741 38.2115 65.776L29.1495 84.5888L29.2571 95.8527C29.2599 96.25 29.1312 96.6386 28.8884 96.9659C28.6456 97.2932 28.3005 97.5433 27.8996 97.6826L24.8669 98.7281C24.6354 98.8082 24.3903 98.8493 24.1431 98.8494Z" fill="#DD0270"/>
<path d="M67.5213 101.116C66.9681 101.057 66.4356 100.886 65.9611 100.616C65.4866 100.345 65.0818 99.9817 64.7751 99.5503C64.4685 99.1189 64.2674 98.6303 64.1861 98.1189C64.1049 97.6076 64.1454 97.0859 64.3047 96.5906L53.3241 89.2459L59.8975 86.9247L69.3172 94.2552C70.1956 94.559 70.9235 95.1513 71.363 95.92C71.8024 96.6887 71.9229 97.5803 71.7015 98.426C71.4801 99.2716 70.9323 100.012 70.1619 100.508C69.3915 101.004 68.4519 101.22 67.5213 101.116H67.5213Z" fill="#FFB8B8"/>
<path d="M60.773 94.7522C60.4492 94.752 60.13 94.682 59.8403 94.5477L48.706 89.3731C44.8169 87.566 41.7671 84.5091 40.1237 80.771L34.8376 68.7496C33.9702 67.5633 33.6396 66.1081 33.9171 64.6977C34.1947 63.2872 35.0582 62.0345 36.3214 61.2097C36.9526 60.7977 37.6657 60.5064 38.4194 60.3529C39.173 60.1993 39.952 60.1866 40.711 60.3154C41.4789 60.4436 42.2118 60.712 42.8672 61.105C43.5225 61.498 44.0873 62.0079 44.5289 62.6051L53.9764 81.254L63.2423 88.526C63.5686 88.7832 63.8019 89.1273 63.9108 89.5116C64.0196 89.8959 63.9987 90.302 63.8508 90.675L62.7261 93.4907C62.5792 93.86 62.314 94.1786 61.966 94.4035C61.6162 94.6305 61.1998 94.7523 60.773 94.7522Z" fill="#DD0270"/>
<path d="M39.7158 56.7287C40.2101 56.9295 41.2222 53.2734 40.7688 52.5421C40.0946 51.4546 40.1344 51.4625 39.6869 50.743C39.2393 50.0235 39.1391 49.0387 39.7187 48.4057C40.2983 47.7726 41.6397 47.8566 41.9042 48.6503C41.734 47.1427 43.3403 45.9308 44.9314 45.5903C46.5224 45.2497 48.2007 45.4611 49.8006 45.1581C51.6573 44.8064 53.5891 43.3615 52.8483 41.466C52.7212 41.1504 52.5308 40.86 52.2874 40.6102C51.4315 39.7168 50.2342 39.3353 49.0636 38.9664C46.6284 38.1991 44.1265 37.4221 41.5564 37.5068C39.4387 37.6096 37.3993 38.2832 35.6877 39.4453C33.976 40.6074 32.6664 42.2075 31.9191 44.0498C31.7419 44.5107 31.6047 44.984 31.5087 45.4652C30.6266 49.8687 33.3811 54.2123 37.8548 55.8892L39.7158 56.7287Z" fill="#2F2E41"/>
<path opacity="0.2" d="M28.7326 96.1082L28.9436 84.5303L35.5498 72.1992L30.2475 84.8569L28.7326 96.1082Z" fill="black"/>
<path d="M88.6391 125.164L60.75 114.407C60.1387 114.173 59.5929 113.813 59.1541 113.354C58.7153 112.895 58.3951 112.349 58.2178 111.757C58.0356 111.159 58.0028 110.53 58.1219 109.919C58.2409 109.307 58.5088 108.728 58.905 108.227C65.9486 99.2238 70.6103 88.8073 72.513 77.8208C72.616 77.2066 72.8686 76.6223 73.2515 76.1124C73.6344 75.6025 74.1375 75.1803 74.7227 74.8781C75.2991 74.5775 75.9418 74.4029 76.6019 74.3676C77.262 74.3324 77.9221 74.4374 78.5318 74.6746L106.421 85.4321C107.383 85.8061 108.17 86.4848 108.643 87.3475C109.116 88.2102 109.244 89.2007 109.004 90.1427C105.887 101.918 100.846 113.181 94.0574 123.54C93.5078 124.363 92.6615 124.978 91.6692 125.275C90.677 125.572 89.6032 125.533 88.6391 125.164Z" fill="#E6E6E6"/>
<path d="M77.66 76.6228C77.3672 76.5087 77.0502 76.4582 76.7332 76.4751C76.4162 76.4919 76.1075 76.5756 75.8306 76.7199C75.546 76.8673 75.3013 77.0731 75.1153 77.3216C74.9292 77.57 74.8066 77.8546 74.7568 78.1536C72.7973 89.4685 67.9963 100.196 60.7422 109.469C60.5491 109.712 60.4183 109.994 60.3599 110.291C60.3016 110.589 60.3171 110.895 60.4054 111.186L60.4055 111.187C60.4907 111.471 60.6445 111.733 60.8553 111.953C61.0661 112.174 61.3283 112.347 61.6219 112.459L89.511 123.216C89.9734 123.395 90.489 123.415 90.966 123.274C91.443 123.132 91.8505 122.838 92.1158 122.444C98.7839 112.268 103.735 101.205 106.798 89.6387C106.911 89.186 106.848 88.7105 106.62 88.2969C106.391 87.8833 106.012 87.5585 105.549 87.3802L77.66 76.6228Z" fill="white"/>
<path d="M92.5098 100.57L77.8747 94.9244C77.3186 94.7093 76.8772 94.2981 76.6472 93.7812C76.4173 93.2642 76.4176 92.6837 76.6482 92.1669L76.9889 91.4057C77.2206 90.8894 77.6635 90.4796 78.2203 90.2661C78.7772 90.0526 79.4025 90.053 79.9591 90.267L94.5941 95.9121C95.1502 96.1272 95.5917 96.5384 95.8216 97.0553C96.0516 97.5723 96.0512 98.1528 95.8207 98.6695L95.48 99.4308C95.2482 99.9471 94.8053 100.357 94.2485 100.57C93.6916 100.784 93.0663 100.784 92.5098 100.57Z" fill="#DD0270"/>
<path d="M88.2047 110.189L73.5697 104.544C73.0136 104.329 72.5721 103.917 72.3422 103.4C72.1123 102.883 72.1126 102.303 72.3431 101.786L72.6838 101.025C72.9156 100.509 73.3585 100.099 73.9153 99.8854C74.4722 99.6719 75.0975 99.6722 75.6541 99.8862L90.2891 105.531C90.8452 105.746 91.2866 106.158 91.5166 106.675C91.7465 107.192 91.7462 107.772 91.5157 108.289L91.175 109.05C90.9432 109.566 90.5003 109.976 89.9435 110.19C89.3866 110.403 88.7613 110.403 88.2047 110.189Z" fill="#DD0270"/>
<path d="M98.374 87.0505C98.1549 87.0504 97.938 87.0109 97.735 86.9343L82.988 81.3991C82.5693 81.2415 82.2351 80.9361 82.0586 80.5499C81.8822 80.1638 81.8779 79.7284 82.0467 79.3393L83.1825 76.7315C83.3519 76.3425 83.6809 76.0319 84.097 75.8681C84.5131 75.7042 84.9823 75.7005 85.4013 75.8578L100.148 81.393C100.567 81.5506 100.901 81.856 101.078 82.2422C101.254 82.6283 101.258 83.0637 101.09 83.4528L99.9538 86.0606C99.8263 86.3527 99.6078 86.6028 99.3265 86.7791C99.0451 86.9554 98.7135 87.0499 98.374 87.0505Z" fill="#CCCCCC"/>
<path d="M67.401 170H14.3787C14.2783 170 14.1819 169.963 14.1109 169.897C14.0399 169.831 14 169.742 14 169.648C14 169.555 14.0399 169.466 14.1109 169.4C14.1819 169.334 14.2783 169.297 14.3787 169.297H67.401C67.5014 169.297 67.5978 169.334 67.6688 169.4C67.7398 169.466 67.7797 169.555 67.7797 169.648C67.7797 169.742 67.7398 169.831 67.6688 169.897C67.5978 169.963 67.5014 170 67.401 170Z" fill="#CCCCCC"/>
<path d="M157.338 70.8C157.418 70.804 157.482 70.834 157.53 70.89C157.582 70.942 157.608 71.008 157.608 71.088V74.712C157.608 74.792 157.578 74.86 157.518 74.916C157.458 74.972 157.384 75 157.296 75C157.208 75 157.136 74.972 157.08 74.916C157.024 74.86 156.996 74.792 156.996 74.712V71.592L156.468 71.91C156.424 71.938 156.374 71.952 156.318 71.952C156.238 71.952 156.17 71.922 156.114 71.862C156.058 71.798 156.03 71.73 156.03 71.658C156.03 71.61 156.044 71.564 156.072 71.52C156.1 71.476 156.136 71.44 156.18 71.412L157.128 70.842C157.184 70.814 157.254 70.8 157.338 70.8ZM160.912 74.472C160.988 74.472 161.052 74.498 161.104 74.55C161.156 74.602 161.182 74.666 161.182 74.742C161.182 74.818 161.156 74.88 161.104 74.928C161.052 74.976 160.988 75 160.912 75H158.782C158.702 75 158.636 74.976 158.584 74.928C158.532 74.876 158.506 74.808 158.506 74.724C158.506 74.652 158.534 74.584 158.59 74.52L159.928 73.068C160.3 72.672 160.486 72.322 160.486 72.018C160.486 71.802 160.414 71.624 160.27 71.484C160.13 71.34 159.95 71.268 159.73 71.268C159.582 71.268 159.44 71.31 159.304 71.394C159.168 71.478 159.058 71.598 158.974 71.754C158.91 71.838 158.834 71.88 158.746 71.88C158.678 71.88 158.614 71.854 158.554 71.802C158.494 71.75 158.464 71.69 158.464 71.622C158.464 71.578 158.478 71.532 158.506 71.484C158.538 71.436 158.582 71.38 158.638 71.316C158.77 71.14 158.938 71 159.142 70.896C159.346 70.792 159.552 70.74 159.76 70.74C160.028 70.74 160.26 70.794 160.456 70.902C160.652 71.01 160.802 71.158 160.906 71.346C161.014 71.534 161.068 71.75 161.068 71.994C161.068 72.454 160.82 72.95 160.324 73.482L159.418 74.472H160.912ZM163.046 72.342C163.274 72.342 163.478 72.4 163.658 72.516C163.842 72.628 163.986 72.782 164.09 72.978C164.194 73.174 164.246 73.394 164.246 73.638C164.246 73.922 164.18 74.172 164.048 74.388C163.916 74.604 163.734 74.77 163.502 74.886C163.27 75.002 163.004 75.06 162.704 75.06C162.544 75.06 162.388 75.038 162.236 74.994C162.088 74.95 161.96 74.886 161.852 74.802C161.744 74.742 161.69 74.66 161.69 74.556C161.69 74.48 161.716 74.41 161.768 74.346C161.824 74.282 161.89 74.25 161.966 74.25C162.038 74.25 162.11 74.276 162.182 74.328C162.346 74.48 162.552 74.556 162.8 74.556C162.956 74.556 163.1 74.52 163.232 74.448C163.368 74.376 163.476 74.274 163.556 74.142C163.636 74.006 163.676 73.85 163.676 73.674C163.676 73.414 163.596 73.214 163.436 73.074C163.276 72.934 163.084 72.864 162.86 72.864C162.796 72.864 162.704 72.878 162.584 72.906C162.496 72.93 162.43 72.942 162.386 72.942C162.314 72.942 162.256 72.918 162.212 72.87C162.168 72.818 162.146 72.754 162.146 72.678C162.146 72.634 162.154 72.596 162.17 72.564C162.186 72.532 162.212 72.494 162.248 72.45L163.268 71.328H161.882C161.806 71.328 161.742 71.302 161.69 71.25C161.638 71.198 161.612 71.134 161.612 71.058C161.612 70.982 161.638 70.92 161.69 70.872C161.742 70.824 161.806 70.8 161.882 70.8H163.796C163.888 70.8 163.96 70.828 164.012 70.884C164.064 70.94 164.09 71.008 164.09 71.088C164.09 71.16 164.052 71.234 163.976 71.31L163.046 72.342ZM165.155 74.994C165.059 74.994 164.985 74.968 164.933 74.916C164.885 74.864 164.861 74.788 164.861 74.688V74.574C164.861 74.478 164.885 74.404 164.933 74.352C164.985 74.3 165.059 74.274 165.155 74.274H165.215C165.315 74.274 165.389 74.3 165.437 74.352C165.489 74.404 165.515 74.478 165.515 74.574V74.688C165.515 74.892 165.415 74.994 165.215 74.994H165.155ZM169.066 73.272C169.142 73.272 169.206 73.298 169.258 73.35C169.31 73.398 169.336 73.46 169.336 73.536C169.336 73.612 169.31 73.674 169.258 73.722C169.206 73.77 169.142 73.794 169.066 73.794H168.748V74.712C168.748 74.792 168.72 74.86 168.664 74.916C168.608 74.972 168.54 75 168.46 75C168.38 75 168.312 74.972 168.256 74.916C168.204 74.86 168.178 74.792 168.178 74.712V73.794H166.534C166.462 73.794 166.396 73.766 166.336 73.71C166.28 73.654 166.252 73.588 166.252 73.512C166.252 73.44 166.274 73.376 166.318 73.32L168.232 70.914C168.26 70.878 168.294 70.85 168.334 70.83C168.378 70.81 168.422 70.8 168.466 70.8C168.546 70.8 168.612 70.828 168.664 70.884C168.72 70.94 168.748 71.008 168.748 71.088V73.272H169.066ZM168.178 73.272V71.772L167.008 73.272H168.178ZM171.313 72.192C171.573 72.192 171.809 72.252 172.021 72.372C172.233 72.488 172.399 72.652 172.519 72.864C172.639 73.072 172.699 73.306 172.699 73.566C172.699 73.842 172.627 74.092 172.483 74.316C172.343 74.54 172.149 74.718 171.901 74.85C171.657 74.978 171.389 75.042 171.097 75.042C170.933 75.042 170.769 75.016 170.605 74.964C170.441 74.912 170.303 74.84 170.191 74.748C170.151 74.716 170.119 74.674 170.095 74.622C170.071 74.57 170.059 74.518 170.059 74.466C170.059 74.406 170.083 74.352 170.131 74.304C170.183 74.252 170.249 74.226 170.329 74.226C170.381 74.226 170.451 74.256 170.539 74.316C170.719 74.448 170.903 74.514 171.091 74.514C171.283 74.514 171.457 74.472 171.613 74.388C171.773 74.304 171.899 74.19 171.991 74.046C172.083 73.902 172.129 73.744 172.129 73.572C172.129 73.316 172.045 73.11 171.877 72.954C171.709 72.798 171.497 72.72 171.241 72.72C171.133 72.72 171.037 72.734 170.953 72.762C170.873 72.79 170.775 72.832 170.659 72.888C170.611 72.912 170.563 72.934 170.515 72.954C170.471 72.97 170.433 72.978 170.401 72.978C170.285 72.978 170.199 72.944 170.143 72.876C170.087 72.808 170.059 72.73 170.059 72.642L170.065 72.582L170.281 71.028C170.293 70.964 170.325 70.91 170.377 70.866C170.433 70.822 170.499 70.8 170.575 70.8H172.339C172.415 70.8 172.477 70.826 172.525 70.878C172.577 70.93 172.603 70.994 172.603 71.07C172.603 71.146 172.577 71.21 172.525 71.262C172.477 71.31 172.415 71.334 172.339 71.334H170.773L170.617 72.36C170.705 72.312 170.811 72.272 170.935 72.24C171.063 72.208 171.189 72.192 171.313 72.192ZM173.751 74.994C173.655 74.994 173.581 74.968 173.529 74.916C173.481 74.864 173.457 74.788 173.457 74.688V74.574C173.457 74.478 173.481 74.404 173.529 74.352C173.581 74.3 173.655 74.274 173.751 74.274H173.811C173.911 74.274 173.985 74.3 174.033 74.352C174.085 74.404 174.111 74.478 174.111 74.574V74.688C174.111 74.892 174.011 74.994 173.811 74.994H173.751ZM176.209 72.306C176.429 72.306 176.637 72.37 176.833 72.498C177.029 72.622 177.185 72.79 177.301 73.002C177.421 73.214 177.481 73.442 177.481 73.686C177.481 73.934 177.421 74.164 177.301 74.376C177.181 74.584 177.017 74.75 176.809 74.874C176.601 74.998 176.371 75.06 176.119 75.06C175.831 75.06 175.581 74.986 175.369 74.838C175.161 74.69 175.001 74.496 174.889 74.256C174.777 74.016 174.721 73.758 174.721 73.482C174.721 73.174 174.781 72.836 174.901 72.468C175.021 72.096 175.217 71.752 175.489 71.436C175.765 71.116 176.117 70.888 176.545 70.752C176.581 70.74 176.617 70.734 176.653 70.734C176.737 70.734 176.805 70.756 176.857 70.8C176.913 70.844 176.941 70.914 176.941 71.01C176.941 71.078 176.919 71.138 176.875 71.19C176.831 71.242 176.771 71.278 176.695 71.298C176.415 71.398 176.155 71.57 175.915 71.814C175.675 72.058 175.503 72.332 175.399 72.636C175.635 72.416 175.905 72.306 176.209 72.306ZM176.113 74.532C176.341 74.532 176.531 74.452 176.683 74.292C176.835 74.132 176.911 73.93 176.911 73.686C176.911 73.45 176.837 73.25 176.689 73.086C176.545 72.918 176.357 72.834 176.125 72.834C175.885 72.834 175.687 72.918 175.531 73.086C175.379 73.25 175.303 73.454 175.303 73.698C175.303 73.93 175.377 74.128 175.525 74.292C175.677 74.452 175.873 74.532 176.113 74.532ZM180.469 70.8C180.553 70.8 180.623 70.826 180.679 70.878C180.739 70.93 180.769 70.996 180.769 71.076C180.769 71.116 180.759 71.16 180.739 71.208L179.131 74.844C179.107 74.9 179.071 74.944 179.023 74.976C178.975 75.008 178.923 75.024 178.867 75.024C178.791 75.024 178.723 74.998 178.663 74.946C178.603 74.894 178.573 74.83 178.573 74.754C178.573 74.714 178.583 74.67 178.603 74.622L180.067 71.328H178.333C178.257 71.328 178.193 71.302 178.141 71.25C178.089 71.198 178.063 71.134 178.063 71.058C178.063 70.982 178.087 70.92 178.135 70.872C178.187 70.824 178.253 70.8 178.333 70.8H180.469ZM181.62 74.994C181.524 74.994 181.45 74.968 181.398 74.916C181.35 74.864 181.326 74.788 181.326 74.688V74.574C181.326 74.478 181.35 74.404 181.398 74.352C181.45 74.3 181.524 74.274 181.62 74.274H181.68C181.78 74.274 181.854 74.3 181.902 74.352C181.954 74.404 181.98 74.478 181.98 74.574V74.688C181.98 74.892 181.88 74.994 181.68 74.994H181.62ZM184.774 72.828C184.966 72.936 185.118 73.076 185.23 73.248C185.346 73.42 185.404 73.604 185.404 73.8C185.404 74.02 185.344 74.224 185.224 74.412C185.104 74.596 184.94 74.744 184.732 74.856C184.524 74.964 184.296 75.018 184.048 75.018C183.8 75.018 183.572 74.964 183.364 74.856C183.156 74.744 182.992 74.596 182.872 74.412C182.752 74.224 182.692 74.02 182.692 73.8C182.692 73.584 182.748 73.396 182.86 73.236C182.976 73.072 183.124 72.938 183.304 72.834C183.156 72.75 183.034 72.636 182.938 72.492C182.842 72.344 182.794 72.172 182.794 71.976C182.794 71.76 182.85 71.562 182.962 71.382C183.074 71.202 183.224 71.06 183.412 70.956C183.604 70.852 183.816 70.8 184.048 70.8C184.276 70.8 184.486 70.852 184.678 70.956C184.87 71.06 185.02 71.202 185.128 71.382C185.24 71.562 185.296 71.76 185.296 71.976C185.296 72.18 185.246 72.354 185.146 72.498C185.046 72.638 184.922 72.748 184.774 72.828ZM184.048 71.328C183.848 71.328 183.684 71.39 183.556 71.514C183.428 71.638 183.364 71.796 183.364 71.988C183.364 72.176 183.43 72.334 183.562 72.462C183.694 72.586 183.856 72.648 184.048 72.648C184.236 72.648 184.396 72.586 184.528 72.462C184.66 72.334 184.726 72.176 184.726 71.988C184.726 71.796 184.662 71.638 184.534 71.514C184.406 71.39 184.244 71.328 184.048 71.328ZM184.048 74.49C184.272 74.49 184.458 74.424 184.606 74.292C184.758 74.16 184.834 73.994 184.834 73.794C184.834 73.594 184.756 73.426 184.6 73.29C184.448 73.154 184.264 73.086 184.048 73.086C183.832 73.086 183.648 73.154 183.496 73.29C183.344 73.426 183.268 73.594 183.268 73.794C183.268 73.994 183.342 74.16 183.49 74.292C183.638 74.424 183.824 74.49 184.048 74.49ZM187.427 70.728C187.715 70.728 187.963 70.802 188.171 70.95C188.383 71.098 188.543 71.292 188.651 71.532C188.763 71.772 188.819 72.03 188.819 72.306C188.819 72.614 188.759 72.95 188.639 73.314C188.519 73.678 188.323 74.018 188.051 74.334C187.779 74.646 187.429 74.87 187.001 75.006C186.965 75.018 186.929 75.024 186.893 75.024C186.813 75.024 186.743 75.002 186.683 74.958C186.627 74.91 186.599 74.84 186.599 74.748C186.599 74.68 186.621 74.62 186.665 74.568C186.709 74.516 186.769 74.48 186.845 74.46C187.129 74.36 187.391 74.192 187.631 73.956C187.875 73.72 188.047 73.45 188.147 73.146C187.915 73.37 187.645 73.482 187.337 73.482C187.117 73.482 186.907 73.42 186.707 73.296C186.511 73.168 186.353 72.998 186.233 72.786C186.117 72.57 186.059 72.34 186.059 72.096C186.059 71.852 186.119 71.626 186.239 71.418C186.363 71.206 186.529 71.038 186.737 70.914C186.945 70.79 187.175 70.728 187.427 70.728ZM187.415 72.948C187.659 72.948 187.857 72.866 188.009 72.702C188.165 72.538 188.243 72.334 188.243 72.09C188.243 71.858 188.167 71.662 188.015 71.502C187.863 71.338 187.667 71.256 187.427 71.256C187.203 71.256 187.015 71.336 186.863 71.496C186.711 71.656 186.635 71.856 186.635 72.096C186.635 72.336 186.707 72.538 186.851 72.702C186.999 72.866 187.187 72.948 187.415 72.948Z" fill="#DD0270"/>
</g>
<defs>
<filter id="filter0_d" x="195" y="16" width="38" height="38" filterUnits="userSpaceOnUse" color-interpolation-filters="sRGB">
<feFlood flood-opacity="0" result="BackgroundImageFix"/>
<feColorMatrix in="SourceAlpha" type="matrix" values="0 0 0 0 0 0 0 0 0 0 0 0 0 0 0 0 0 0 127 0" result="hardAlpha"/>
<feOffset dy="4"/>
<feGaussianBlur stdDeviation="2"/>
<feColorMatrix type="matrix" values="0 0 0 0 0 0 0 0 0 0 0 0 0 0 0 0 0 0 0.25 0"/>
<feBlend mode="normal" in2="BackgroundImageFix" result="effect1_dropShadow"/>
<feBlend mode="normal" in="SourceGraphic" in2="effect1_dropShadow" result="shape"/>
</filter>
<filter id="filter1_d" x="30" y="113" width="38" height="38" filterUnits="userSpaceOnUse" color-interpolation-filters="sRGB">
<feFlood flood-opacity="0" result="BackgroundImageFix"/>
<feColorMatrix in="SourceAlpha" type="matrix" values="0 0 0 0 0 0 0 0 0 0 0 0 0 0 0 0 0 0 127 0" result="hardAlpha"/>
<feOffset dy="4"/>
<feGaussianBlur stdDeviation="2"/>
<feColorMatrix type="matrix" values="0 0 0 0 0 0 0 0 0 0 0 0 0 0 0 0 0 0 0.25 0"/>
<feBlend mode="normal" in2="BackgroundImageFix" result="effect1_dropShadow"/>
<feBlend mode="normal" in="SourceGraphic" in2="effect1_dropShadow" result="shape"/>
</filter>
<filter id="filter2_d" x="0" y="113" width="38" height="38" filterUnits="userSpaceOnUse" color-interpolation-filters="sRGB">
<feFlood flood-opacity="0" result="BackgroundImageFix"/>
<feColorMatrix in="SourceAlpha" type="matrix" values="0 0 0 0 0 0 0 0 0 0 0 0 0 0 0 0 0 0 127 0" result="hardAlpha"/>
<feOffset dy="4"/>
<feGaussianBlur stdDeviation="2"/>
<feColorMatrix type="matrix" values="0 0 0 0 0 0 0 0 0 0 0 0 0 0 0 0 0 0 0.25 0"/>
<feBlend mode="normal" in2="BackgroundImageFix" result="effect1_dropShadow"/>
<feBlend mode="normal" in="SourceGraphic" in2="effect1_dropShadow" result="shape"/>
</filter>
<filter id="filter3_d" x="0" y="47" width="233" height="75" filterUnits="userSpaceOnUse" color-interpolation-filters="sRGB">
<feFlood flood-opacity="0" result="BackgroundImageFix"/>
<feColorMatrix in="SourceAlpha" type="matrix" values="0 0 0 0 0 0 0 0 0 0 0 0 0 0 0 0 0 0 127 0" result="hardAlpha"/>
<feOffset dy="4"/>
<feGaussianBlur stdDeviation="2"/>
<feColorMatrix type="matrix" values="0 0 0 0 0 0 0 0 0 0 0 0 0 0 0 0 0 0 0.25 0"/>
<feBlend mode="normal" in2="BackgroundImageFix" result="effect1_dropShadow"/>
<feBlend mode="normal" in="SourceGraphic" in2="effect1_dropShadow" result="shape"/>
</filter>
<clipPath id="clip0">
<rect width="184" height="170" fill="white" transform="translate(14)"/>
</clipPath>
</defs>
</svg>
