<svg width="233" height="135" viewBox="0 0 233 135" fill="none" xmlns="http://www.w3.org/2000/svg">
<g filter="url(#filter0_d)">
<rect x="199" width="30" height="30" fill="#DD0270" fill-opacity="0.5"/>
</g>
<g filter="url(#filter1_d)">
<rect x="34" y="97" width="30" height="30" fill="#DD0270" fill-opacity="0.5"/>
</g>
<g filter="url(#filter2_d)">
<rect x="4" y="97" width="30" height="30" fill="#DD0270" fill-opacity="0.75"/>
</g>
<g filter="url(#filter3_d)">
<rect x="4" y="31" width="225" height="67" fill="#DD0270"/>
</g>
<path d="M26.028 52.8C26.508 52.824 26.892 53.004 27.18 53.34C27.492 53.652 27.648 54.048 27.648 54.528V76.272C27.648 76.752 27.468 77.16 27.108 77.496C26.748 77.832 26.304 78 25.776 78C25.248 78 24.816 77.832 24.48 77.496C24.144 77.16 23.976 76.752 23.976 76.272V57.552L20.808 59.46C20.544 59.628 20.244 59.712 19.908 59.712C19.428 59.712 19.02 59.532 18.684 59.172C18.348 58.788 18.18 58.38 18.18 57.948C18.18 57.66 18.264 57.384 18.432 57.12C18.6 56.856 18.816 56.64 19.08 56.472L24.768 53.052C25.104 52.884 25.524 52.8 26.028 52.8ZM47.4691 74.832C47.9251 74.832 48.3091 74.988 48.6211 75.3C48.9331 75.612 49.0891 75.996 49.0891 76.452C49.0891 76.908 48.9331 77.28 48.6211 77.568C48.3091 77.856 47.9251 78 47.4691 78H34.6891C34.2091 78 33.8131 77.856 33.5011 77.568C33.1891 77.256 33.0331 76.848 33.0331 76.344C33.0331 75.912 33.2011 75.504 33.5371 75.12L41.5651 66.408C43.7971 64.032 44.9131 61.932 44.9131 60.108C44.9131 58.812 44.4811 57.744 43.6171 56.904C42.7771 56.04 41.6971 55.608 40.3771 55.608C39.4891 55.608 38.6371 55.86 37.8211 56.364C37.0051 56.868 36.3451 57.588 35.8411 58.524C35.4571 59.028 35.0011 59.28 34.4731 59.28C34.0651 59.28 33.6811 59.124 33.3211 58.812C32.9611 58.5 32.7811 58.14 32.7811 57.732C32.7811 57.468 32.8651 57.192 33.0331 56.904C33.2251 56.616 33.4891 56.28 33.8251 55.896C34.6171 54.84 35.6251 54 36.8491 53.376C38.0731 52.752 39.3091 52.44 40.5571 52.44C42.1651 52.44 43.5571 52.764 44.7331 53.412C45.9091 54.06 46.8091 54.948 47.4331 56.076C48.0811 57.204 48.4051 58.5 48.4051 59.964C48.4051 62.724 46.9171 65.7 43.9411 68.892L38.5051 74.832H47.4691ZM60.2789 62.052C61.6469 62.052 62.8709 62.4 63.9509 63.096C65.0549 63.768 65.9189 64.692 66.5429 65.868C67.1669 67.044 67.4789 68.364 67.4789 69.828C67.4789 71.532 67.0829 73.032 66.2909 74.328C65.4989 75.624 64.4069 76.62 63.0149 77.316C61.6229 78.012 60.0269 78.36 58.2269 78.36C57.2669 78.36 56.3309 78.228 55.4189 77.964C54.5309 77.7 53.7629 77.316 53.1149 76.812C52.4669 76.452 52.1429 75.96 52.1429 75.336C52.1429 74.88 52.2989 74.46 52.6109 74.076C52.9469 73.692 53.3429 73.5 53.7989 73.5C54.2309 73.5 54.6629 73.656 55.0949 73.968C56.0789 74.88 57.3149 75.336 58.8029 75.336C59.7389 75.336 60.6029 75.12 61.3949 74.688C62.2109 74.256 62.8589 73.644 63.3389 72.852C63.8189 72.036 64.0589 71.1 64.0589 70.044C64.0589 68.484 63.5789 67.284 62.6189 66.444C61.6589 65.604 60.5069 65.184 59.1629 65.184C58.7789 65.184 58.2269 65.268 57.5069 65.436C56.9789 65.58 56.5829 65.652 56.3189 65.652C55.8869 65.652 55.5389 65.508 55.2749 65.22C55.0109 64.908 54.8789 64.524 54.8789 64.068C54.8789 63.804 54.9269 63.576 55.0229 63.384C55.1189 63.192 55.2749 62.964 55.4909 62.7L61.6109 55.968H53.2949C52.8389 55.968 52.4549 55.812 52.1429 55.5C51.8309 55.188 51.6749 54.804 51.6749 54.348C51.6749 53.892 51.8309 53.52 52.1429 53.232C52.4549 52.944 52.8389 52.8 53.2949 52.8H64.7789C65.3309 52.8 65.7629 52.968 66.0749 53.304C66.3869 53.64 66.5429 54.048 66.5429 54.528C66.5429 54.96 66.3149 55.404 65.8589 55.86L60.2789 62.052ZM72.9323 77.964C72.3563 77.964 71.9123 77.808 71.6003 77.496C71.3123 77.184 71.1683 76.728 71.1683 76.128V75.444C71.1683 74.868 71.3123 74.424 71.6003 74.112C71.9123 73.8 72.3563 73.644 72.9323 73.644H73.2923C73.8923 73.644 74.3363 73.8 74.6243 74.112C74.9363 74.424 75.0923 74.868 75.0923 75.444V76.128C75.0923 77.352 74.4923 77.964 73.2923 77.964H72.9323ZM96.3937 67.632C96.8497 67.632 97.2337 67.788 97.5457 68.1C97.8577 68.388 98.0137 68.76 98.0137 69.216C98.0137 69.672 97.8577 70.044 97.5457 70.332C97.2337 70.62 96.8497 70.764 96.3937 70.764H94.4857V76.272C94.4857 76.752 94.3177 77.16 93.9817 77.496C93.6457 77.832 93.2377 78 92.7577 78C92.2777 78 91.8697 77.832 91.5337 77.496C91.2217 77.16 91.0657 76.752 91.0657 76.272V70.764H81.2017C80.7697 70.764 80.3737 70.596 80.0137 70.26C79.6777 69.924 79.5097 69.528 79.5097 69.072C79.5097 68.64 79.6417 68.256 79.9057 67.92L91.3897 53.484C91.5577 53.268 91.7617 53.1 92.0017 52.98C92.2657 52.86 92.5297 52.8 92.7937 52.8C93.2737 52.8 93.6697 52.968 93.9817 53.304C94.3177 53.64 94.4857 54.048 94.4857 54.528V67.632H96.3937ZM91.0657 67.632V58.632L84.0457 67.632H91.0657ZM109.877 61.152C111.437 61.152 112.853 61.512 114.125 62.232C115.397 62.928 116.393 63.912 117.113 65.184C117.833 66.432 118.193 67.836 118.193 69.396C118.193 71.052 117.761 72.552 116.897 73.896C116.057 75.24 114.893 76.308 113.405 77.1C111.941 77.868 110.333 78.252 108.581 78.252C107.597 78.252 106.613 78.096 105.629 77.784C104.645 77.472 103.817 77.04 103.145 76.488C102.905 76.296 102.713 76.044 102.569 75.732C102.425 75.42 102.353 75.108 102.353 74.796C102.353 74.436 102.497 74.112 102.785 73.824C103.097 73.512 103.493 73.356 103.973 73.356C104.285 73.356 104.705 73.536 105.233 73.896C106.313 74.688 107.417 75.084 108.545 75.084C109.697 75.084 110.741 74.832 111.677 74.328C112.637 73.824 113.393 73.14 113.945 72.276C114.497 71.412 114.773 70.464 114.773 69.432C114.773 67.896 114.269 66.66 113.261 65.724C112.253 64.788 110.981 64.32 109.445 64.32C108.797 64.32 108.221 64.404 107.717 64.572C107.237 64.74 106.649 64.992 105.953 65.328C105.665 65.472 105.377 65.604 105.089 65.724C104.825 65.82 104.597 65.868 104.405 65.868C103.709 65.868 103.193 65.664 102.857 65.256C102.521 64.848 102.353 64.38 102.353 63.852L102.389 63.492L103.685 54.168C103.757 53.784 103.949 53.46 104.261 53.196C104.597 52.932 104.993 52.8 105.449 52.8H116.033C116.489 52.8 116.861 52.956 117.149 53.268C117.461 53.58 117.617 53.964 117.617 54.42C117.617 54.876 117.461 55.26 117.149 55.572C116.861 55.86 116.489 56.004 116.033 56.004H106.637L105.701 62.16C106.229 61.872 106.865 61.632 107.609 61.44C108.377 61.248 109.133 61.152 109.877 61.152ZM124.507 77.964C123.931 77.964 123.487 77.808 123.175 77.496C122.887 77.184 122.743 76.728 122.743 76.128V75.444C122.743 74.868 122.887 74.424 123.175 74.112C123.487 73.8 123.931 73.644 124.507 73.644H124.867C125.467 73.644 125.911 73.8 126.199 74.112C126.511 74.424 126.667 74.868 126.667 75.444V76.128C126.667 77.352 126.067 77.964 124.867 77.964H124.507ZM139.256 61.836C140.576 61.836 141.824 62.22 143 62.988C144.176 63.732 145.112 64.74 145.808 66.012C146.528 67.284 146.888 68.652 146.888 70.116C146.888 71.604 146.528 72.984 145.808 74.256C145.088 75.504 144.104 76.5 142.856 77.244C141.608 77.988 140.228 78.36 138.716 78.36C136.988 78.36 135.488 77.916 134.216 77.028C132.968 76.14 132.008 74.976 131.336 73.536C130.664 72.096 130.328 70.548 130.328 68.892C130.328 67.044 130.688 65.016 131.408 62.808C132.128 60.576 133.304 58.512 134.936 56.616C136.592 54.696 138.704 53.328 141.272 52.512C141.488 52.44 141.704 52.404 141.92 52.404C142.424 52.404 142.832 52.536 143.144 52.8C143.48 53.064 143.648 53.484 143.648 54.06C143.648 54.468 143.516 54.828 143.252 55.14C142.988 55.452 142.628 55.668 142.172 55.788C140.492 56.388 138.932 57.42 137.492 58.884C136.052 60.348 135.02 61.992 134.396 63.816C135.812 62.496 137.432 61.836 139.256 61.836ZM138.68 75.192C140.048 75.192 141.188 74.712 142.1 73.752C143.012 72.792 143.468 71.58 143.468 70.116C143.468 68.7 143.024 67.5 142.136 66.516C141.272 65.508 140.144 65.004 138.752 65.004C137.312 65.004 136.124 65.508 135.188 66.516C134.276 67.5 133.82 68.724 133.82 70.188C133.82 71.58 134.264 72.768 135.152 73.752C136.064 74.712 137.24 75.192 138.68 75.192ZM164.815 52.8C165.319 52.8 165.739 52.956 166.075 53.268C166.435 53.58 166.615 53.976 166.615 54.456C166.615 54.696 166.555 54.96 166.435 55.248L156.787 77.064C156.643 77.4 156.427 77.664 156.139 77.856C155.851 78.048 155.539 78.144 155.203 78.144C154.747 78.144 154.339 77.988 153.979 77.676C153.619 77.364 153.439 76.98 153.439 76.524C153.439 76.284 153.499 76.02 153.619 75.732L162.403 55.968H151.999C151.543 55.968 151.159 55.812 150.847 55.5C150.535 55.188 150.379 54.804 150.379 54.348C150.379 53.892 150.523 53.52 150.811 53.232C151.123 52.944 151.519 52.8 151.999 52.8H164.815ZM171.721 77.964C171.145 77.964 170.701 77.808 170.389 77.496C170.101 77.184 169.957 76.728 169.957 76.128V75.444C169.957 74.868 170.101 74.424 170.389 74.112C170.701 73.8 171.145 73.644 171.721 73.644H172.081C172.681 73.644 173.125 73.8 173.413 74.112C173.725 74.424 173.881 74.868 173.881 75.444V76.128C173.881 77.352 173.281 77.964 172.081 77.964H171.721ZM190.647 64.968C191.799 65.616 192.711 66.456 193.383 67.488C194.079 68.52 194.427 69.624 194.427 70.8C194.427 72.12 194.067 73.344 193.347 74.472C192.627 75.576 191.643 76.464 190.395 77.136C189.147 77.784 187.779 78.108 186.291 78.108C184.803 78.108 183.435 77.784 182.187 77.136C180.939 76.464 179.955 75.576 179.235 74.472C178.515 73.344 178.155 72.12 178.155 70.8C178.155 69.504 178.491 68.376 179.163 67.416C179.859 66.432 180.747 65.628 181.827 65.004C180.939 64.5 180.207 63.816 179.631 62.952C179.055 62.064 178.767 61.032 178.767 59.856C178.767 58.56 179.103 57.372 179.775 56.292C180.447 55.212 181.347 54.36 182.475 53.736C183.627 53.112 184.899 52.8 186.291 52.8C187.659 52.8 188.919 53.112 190.071 53.736C191.223 54.36 192.123 55.212 192.771 56.292C193.443 57.372 193.779 58.56 193.779 59.856C193.779 61.08 193.479 62.124 192.879 62.988C192.279 63.828 191.535 64.488 190.647 64.968ZM186.291 55.968C185.091 55.968 184.107 56.34 183.339 57.084C182.571 57.828 182.187 58.776 182.187 59.928C182.187 61.056 182.583 62.004 183.375 62.772C184.167 63.516 185.139 63.888 186.291 63.888C187.419 63.888 188.379 63.516 189.171 62.772C189.963 62.004 190.359 61.056 190.359 59.928C190.359 58.776 189.975 57.828 189.207 57.084C188.439 56.34 187.467 55.968 186.291 55.968ZM186.291 74.94C187.635 74.94 188.751 74.544 189.639 73.752C190.551 72.96 191.007 71.964 191.007 70.764C191.007 69.564 190.539 68.556 189.603 67.74C188.691 66.924 187.587 66.516 186.291 66.516C184.995 66.516 183.891 66.924 182.979 67.74C182.067 68.556 181.611 69.564 181.611 70.764C181.611 71.964 182.055 72.96 182.943 73.752C183.831 74.544 184.947 74.94 186.291 74.94ZM206.563 52.368C208.291 52.368 209.779 52.812 211.027 53.7C212.299 54.588 213.259 55.752 213.907 57.192C214.579 58.632 214.915 60.18 214.915 61.836C214.915 63.684 214.555 65.7 213.835 67.884C213.115 70.068 211.939 72.108 210.307 74.004C208.675 75.876 206.575 77.22 204.007 78.036C203.791 78.108 203.575 78.144 203.359 78.144C202.879 78.144 202.459 78.012 202.099 77.748C201.763 77.46 201.595 77.04 201.595 76.488C201.595 76.08 201.727 75.72 201.991 75.408C202.255 75.096 202.615 74.88 203.071 74.76C204.775 74.16 206.347 73.152 207.787 71.736C209.251 70.32 210.283 68.7 210.883 66.876C209.491 68.22 207.871 68.892 206.023 68.892C204.703 68.892 203.443 68.52 202.243 67.776C201.067 67.008 200.119 65.988 199.399 64.716C198.703 63.42 198.355 62.04 198.355 60.576C198.355 59.112 198.715 57.756 199.435 56.508C200.179 55.236 201.175 54.228 202.423 53.484C203.671 52.74 205.051 52.368 206.563 52.368ZM206.491 65.688C207.955 65.688 209.143 65.196 210.055 64.212C210.991 63.228 211.459 62.004 211.459 60.54C211.459 59.148 211.003 57.972 210.091 57.012C209.179 56.028 208.003 55.536 206.563 55.536C205.219 55.536 204.091 56.016 203.179 56.976C202.267 57.936 201.811 59.136 201.811 60.576C201.811 62.016 202.243 63.228 203.107 64.212C203.995 65.196 205.123 65.688 206.491 65.688Z" fill="#FDFDFD"/>
<defs>
<filter id="filter0_d" x="195" y="0" width="38" height="38" filterUnits="userSpaceOnUse" color-interpolation-filters="sRGB">
<feFlood flood-opacity="0" result="BackgroundImageFix"/>
<feColorMatrix in="SourceAlpha" type="matrix" values="0 0 0 0 0 0 0 0 0 0 0 0 0 0 0 0 0 0 127 0" result="hardAlpha"/>
<feOffset dy="4"/>
<feGaussianBlur stdDeviation="2"/>
<feColorMatrix type="matrix" values="0 0 0 0 0 0 0 0 0 0 0 0 0 0 0 0 0 0 0.25 0"/>
<feBlend mode="normal" in2="BackgroundImageFix" result="effect1_dropShadow"/>
<feBlend mode="normal" in="SourceGraphic" in2="effect1_dropShadow" result="shape"/>
</filter>
<filter id="filter1_d" x="30" y="97" width="38" height="38" filterUnits="userSpaceOnUse" color-interpolation-filters="sRGB">
<feFlood flood-opacity="0" result="BackgroundImageFix"/>
<feColorMatrix in="SourceAlpha" type="matrix" values="0 0 0 0 0 0 0 0 0 0 0 0 0 0 0 0 0 0 127 0" result="hardAlpha"/>
<feOffset dy="4"/>
<feGaussianBlur stdDeviation="2"/>
<feColorMatrix type="matrix" values="0 0 0 0 0 0 0 0 0 0 0 0 0 0 0 0 0 0 0.25 0"/>
<feBlend mode="normal" in2="BackgroundImageFix" result="effect1_dropShadow"/>
<feBlend mode="normal" in="SourceGraphic" in2="effect1_dropShadow" result="shape"/>
</filter>
<filter id="filter2_d" x="0" y="97" width="38" height="38" filterUnits="userSpaceOnUse" color-interpolation-filters="sRGB">
<feFlood flood-opacity="0" result="BackgroundImageFix"/>
<feColorMatrix in="SourceAlpha" type="matrix" values="0 0 0 0 0 0 0 0 0 0 0 0 0 0 0 0 0 0 127 0" result="hardAlpha"/>
<feOffset dy="4"/>
<feGaussianBlur stdDeviation="2"/>
<feColorMatrix type="matrix" values="0 0 0 0 0 0 0 0 0 0 0 0 0 0 0 0 0 0 0.25 0"/>
<feBlend mode="normal" in2="BackgroundImageFix" result="effect1_dropShadow"/>
<feBlend mode="normal" in="SourceGraphic" in2="effect1_dropShadow" result="shape"/>
</filter>
<filter id="filter3_d" x="0" y="31" width="233" height="75" filterUnits="userSpaceOnUse" color-interpolation-filters="sRGB">
<feFlood flood-opacity="0" result="BackgroundImageFix"/>
<feColorMatrix in="SourceAlpha" type="matrix" values="0 0 0 0 0 0 0 0 0 0 0 0 0 0 0 0 0 0 127 0" result="hardAlpha"/>
<feOffset dy="4"/>
<feGaussianBlur stdDeviation="2"/>
<feColorMatrix type="matrix" values="0 0 0 0 0 0 0 0 0 0 0 0 0 0 0 0 0 0 0.25 0"/>
<feBlend mode="normal" in2="BackgroundImageFix" result="effect1_dropShadow"/>
<feBlend mode="normal" in="SourceGraphic" in2="effect1_dropShadow" result="shape"/>
</filter>
</defs>
</svg>
