<svg width="234" height="171" viewBox="0 0 234 171" fill="none" xmlns="http://www.w3.org/2000/svg">
<g filter="url(#filter0_d)">
<rect x="200" width="30" height="30" fill="#DD0270" fill-opacity="0.5"/>
</g>
<g filter="url(#filter1_d)">
<rect x="35" y="97" width="30" height="30" fill="#DD0270" fill-opacity="0.5"/>
</g>
<g filter="url(#filter2_d)">
<rect x="5" y="97" width="30" height="30" fill="#DD0270" fill-opacity="0.75"/>
</g>
<g filter="url(#filter3_d)">
<rect x="5" y="31" width="225" height="67" fill="#DD0270"/>
</g>
<g filter="url(#filter4_d)">
<rect x="34" y="133" width="30" height="30" fill="#DD0270" fill-opacity="0.5"/>
</g>
<g filter="url(#filter5_d)">
<rect x="4" y="133" width="30" height="30" fill="#DD0270" fill-opacity="0.75"/>
</g>
<g filter="url(#filter6_d)">
<rect x="4" y="67" width="225" height="67" fill="#DD0270"/>
</g>
<path d="M19.028 93.8C19.508 93.824 19.892 94.004 20.18 94.34C20.492 94.652 20.648 95.048 20.648 95.528V117.272C20.648 117.752 20.468 118.16 20.108 118.496C19.748 118.832 19.304 119 18.776 119C18.248 119 17.816 118.832 17.48 118.496C17.144 118.16 16.976 117.752 16.976 117.272V98.552L13.808 100.46C13.544 100.628 13.244 100.712 12.908 100.712C12.428 100.712 12.02 100.532 11.684 100.172C11.348 99.788 11.18 99.38 11.18 98.948C11.18 98.66 11.264 98.384 11.432 98.12C11.6 97.856 11.816 97.64 12.08 97.472L17.768 94.052C18.104 93.884 18.524 93.8 19.028 93.8ZM40.4691 115.832C40.9251 115.832 41.3091 115.988 41.6211 116.3C41.9331 116.612 42.0891 116.996 42.0891 117.452C42.0891 117.908 41.9331 118.28 41.6211 118.568C41.3091 118.856 40.9251 119 40.4691 119H27.6891C27.2091 119 26.8131 118.856 26.5011 118.568C26.1891 118.256 26.0331 117.848 26.0331 117.344C26.0331 116.912 26.2011 116.504 26.5371 116.12L34.5651 107.408C36.7971 105.032 37.9131 102.932 37.9131 101.108C37.9131 99.812 37.4811 98.744 36.6171 97.904C35.7771 97.04 34.6971 96.608 33.3771 96.608C32.4891 96.608 31.6371 96.86 30.8211 97.364C30.0051 97.868 29.3451 98.588 28.8411 99.524C28.4571 100.028 28.0011 100.28 27.4731 100.28C27.0651 100.28 26.6811 100.124 26.3211 99.812C25.9611 99.5 25.7811 99.14 25.7811 98.732C25.7811 98.468 25.8651 98.192 26.0331 97.904C26.2251 97.616 26.4891 97.28 26.8251 96.896C27.6171 95.84 28.6251 95 29.8491 94.376C31.0731 93.752 32.3091 93.44 33.5571 93.44C35.1651 93.44 36.5571 93.764 37.7331 94.412C38.9091 95.06 39.8091 95.948 40.4331 97.076C41.0811 98.204 41.4051 99.5 41.4051 100.964C41.4051 103.724 39.9171 106.7 36.9411 109.892L31.5051 115.832H40.4691ZM53.2789 103.052C54.6469 103.052 55.8709 103.4 56.9509 104.096C58.0549 104.768 58.9189 105.692 59.5429 106.868C60.1669 108.044 60.4789 109.364 60.4789 110.828C60.4789 112.532 60.0829 114.032 59.2909 115.328C58.4989 116.624 57.4069 117.62 56.0149 118.316C54.6229 119.012 53.0269 119.36 51.2269 119.36C50.2669 119.36 49.3309 119.228 48.4189 118.964C47.5309 118.7 46.7629 118.316 46.1149 117.812C45.4669 117.452 45.1429 116.96 45.1429 116.336C45.1429 115.88 45.2989 115.46 45.6109 115.076C45.9469 114.692 46.3429 114.5 46.7989 114.5C47.2309 114.5 47.6629 114.656 48.0949 114.968C49.0789 115.88 50.3149 116.336 51.8029 116.336C52.7389 116.336 53.6029 116.12 54.3949 115.688C55.2109 115.256 55.8589 114.644 56.3389 113.852C56.8189 113.036 57.0589 112.1 57.0589 111.044C57.0589 109.484 56.5789 108.284 55.6189 107.444C54.6589 106.604 53.5069 106.184 52.1629 106.184C51.7789 106.184 51.2269 106.268 50.5069 106.436C49.9789 106.58 49.5829 106.652 49.3189 106.652C48.8869 106.652 48.5389 106.508 48.2749 106.22C48.0109 105.908 47.8789 105.524 47.8789 105.068C47.8789 104.804 47.9269 104.576 48.0229 104.384C48.1189 104.192 48.2749 103.964 48.4909 103.7L54.6109 96.968H46.2949C45.8389 96.968 45.4549 96.812 45.1429 96.5C44.8309 96.188 44.6749 95.804 44.6749 95.348C44.6749 94.892 44.8309 94.52 45.1429 94.232C45.4549 93.944 45.8389 93.8 46.2949 93.8H57.7789C58.3309 93.8 58.7629 93.968 59.0749 94.304C59.3869 94.64 59.5429 95.048 59.5429 95.528C59.5429 95.96 59.3149 96.404 58.8589 96.86L53.2789 103.052ZM65.9323 118.964C65.3563 118.964 64.9123 118.808 64.6003 118.496C64.3123 118.184 64.1683 117.728 64.1683 117.128V116.444C64.1683 115.868 64.3123 115.424 64.6003 115.112C64.9123 114.8 65.3563 114.644 65.9323 114.644H66.2923C66.8923 114.644 67.3363 114.8 67.6243 115.112C67.9363 115.424 68.0923 115.868 68.0923 116.444V117.128C68.0923 118.352 67.4923 118.964 66.2923 118.964H65.9323ZM91.1217 116.408C91.3377 116.696 91.4457 117.044 91.4457 117.452C91.4457 117.956 91.2657 118.364 90.9057 118.676C90.5697 118.988 90.1857 119.144 89.7537 119.144C89.1537 119.144 88.6857 118.904 88.3497 118.424L81.3657 109.064L74.5257 118.388C74.1657 118.892 73.6977 119.144 73.1217 119.144C72.6897 119.144 72.3177 119 72.0057 118.712C71.7177 118.4 71.5737 118.052 71.5737 117.668C71.5737 117.26 71.7177 116.864 72.0057 116.48L79.3857 106.436L71.9697 96.464C71.7297 96.152 71.6097 95.804 71.6097 95.42C71.6097 94.94 71.7777 94.532 72.1137 94.196C72.4737 93.86 72.8817 93.692 73.3377 93.692C73.6017 93.692 73.8537 93.752 74.0937 93.872C74.3577 93.992 74.5737 94.172 74.7417 94.412L81.6537 103.7L88.4937 94.52C88.9017 93.992 89.3577 93.728 89.8617 93.728C90.2937 93.728 90.6657 93.896 90.9777 94.232C91.3137 94.544 91.4817 94.904 91.4817 95.312C91.4817 95.672 91.3617 96.02 91.1217 96.356L83.6337 106.364L91.1217 116.408ZM113.938 116.408C114.154 116.696 114.262 117.044 114.262 117.452C114.262 117.956 114.082 118.364 113.722 118.676C113.386 118.988 113.002 119.144 112.57 119.144C111.97 119.144 111.502 118.904 111.166 118.424L104.182 109.064L97.3421 118.388C96.9821 118.892 96.5141 119.144 95.9381 119.144C95.5061 119.144 95.1341 119 94.8221 118.712C94.5341 118.4 94.3901 118.052 94.3901 117.668C94.3901 117.26 94.5341 116.864 94.8221 116.48L102.202 106.436L94.7861 96.464C94.5461 96.152 94.4261 95.804 94.4261 95.42C94.4261 94.94 94.5941 94.532 94.9301 94.196C95.2901 93.86 95.6981 93.692 96.1541 93.692C96.4181 93.692 96.6701 93.752 96.9101 93.872C97.1741 93.992 97.3901 94.172 97.5581 94.412L104.47 103.7L111.31 94.52C111.718 93.992 112.174 93.728 112.678 93.728C113.11 93.728 113.482 93.896 113.794 94.232C114.13 94.544 114.298 94.904 114.298 95.312C114.298 95.672 114.178 96.02 113.938 96.356L106.45 106.364L113.938 116.408ZM119.51 118.964C118.934 118.964 118.49 118.808 118.178 118.496C117.89 118.184 117.746 117.728 117.746 117.128V116.444C117.746 115.868 117.89 115.424 118.178 115.112C118.49 114.8 118.934 114.644 119.51 114.644H119.87C120.47 114.644 120.914 114.8 121.202 115.112C121.514 115.424 121.67 115.868 121.67 116.444V117.128C121.67 118.352 121.07 118.964 119.87 118.964H119.51ZM144.7 116.408C144.916 116.696 145.024 117.044 145.024 117.452C145.024 117.956 144.844 118.364 144.484 118.676C144.148 118.988 143.764 119.144 143.332 119.144C142.732 119.144 142.264 118.904 141.928 118.424L134.944 109.064L128.104 118.388C127.744 118.892 127.276 119.144 126.7 119.144C126.268 119.144 125.896 119 125.584 118.712C125.296 118.4 125.152 118.052 125.152 117.668C125.152 117.26 125.296 116.864 125.584 116.48L132.964 106.436L125.548 96.464C125.308 96.152 125.188 95.804 125.188 95.42C125.188 94.94 125.356 94.532 125.692 94.196C126.052 93.86 126.46 93.692 126.916 93.692C127.18 93.692 127.432 93.752 127.672 93.872C127.936 93.992 128.152 94.172 128.32 94.412L135.232 103.7L142.072 94.52C142.48 93.992 142.936 93.728 143.44 93.728C143.872 93.728 144.244 93.896 144.556 94.232C144.892 94.544 145.06 94.904 145.06 95.312C145.06 95.672 144.94 96.02 144.7 96.356L137.212 106.364L144.7 116.408ZM167.516 116.408C167.732 116.696 167.84 117.044 167.84 117.452C167.84 117.956 167.66 118.364 167.3 118.676C166.964 118.988 166.58 119.144 166.148 119.144C165.548 119.144 165.08 118.904 164.744 118.424L157.76 109.064L150.92 118.388C150.56 118.892 150.092 119.144 149.516 119.144C149.084 119.144 148.712 119 148.4 118.712C148.112 118.4 147.968 118.052 147.968 117.668C147.968 117.26 148.112 116.864 148.4 116.48L155.78 106.436L148.364 96.464C148.124 96.152 148.004 95.804 148.004 95.42C148.004 94.94 148.172 94.532 148.508 94.196C148.868 93.86 149.276 93.692 149.732 93.692C149.996 93.692 150.248 93.752 150.488 93.872C150.752 93.992 150.968 94.172 151.136 94.412L158.048 103.7L164.888 94.52C165.296 93.992 165.752 93.728 166.256 93.728C166.688 93.728 167.06 93.896 167.372 94.232C167.708 94.544 167.876 94.904 167.876 95.312C167.876 95.672 167.756 96.02 167.516 96.356L160.028 106.364L167.516 116.408ZM173.089 118.964C172.513 118.964 172.069 118.808 171.757 118.496C171.469 118.184 171.325 117.728 171.325 117.128V116.444C171.325 115.868 171.469 115.424 171.757 115.112C172.069 114.8 172.513 114.644 173.089 114.644H173.449C174.049 114.644 174.493 114.8 174.781 115.112C175.093 115.424 175.249 115.868 175.249 116.444V117.128C175.249 118.352 174.649 118.964 173.449 118.964H173.089ZM198.278 116.408C198.494 116.696 198.602 117.044 198.602 117.452C198.602 117.956 198.422 118.364 198.062 118.676C197.726 118.988 197.342 119.144 196.91 119.144C196.31 119.144 195.842 118.904 195.506 118.424L188.522 109.064L181.682 118.388C181.322 118.892 180.854 119.144 180.278 119.144C179.846 119.144 179.474 119 179.162 118.712C178.874 118.4 178.73 118.052 178.73 117.668C178.73 117.26 178.874 116.864 179.162 116.48L186.542 106.436L179.126 96.464C178.886 96.152 178.766 95.804 178.766 95.42C178.766 94.94 178.934 94.532 179.27 94.196C179.63 93.86 180.038 93.692 180.494 93.692C180.758 93.692 181.01 93.752 181.25 93.872C181.514 93.992 181.73 94.172 181.898 94.412L188.81 103.7L195.65 94.52C196.058 93.992 196.514 93.728 197.018 93.728C197.45 93.728 197.822 93.896 198.134 94.232C198.47 94.544 198.638 94.904 198.638 95.312C198.638 95.672 198.518 96.02 198.278 96.356L190.79 106.364L198.278 116.408ZM221.094 116.408C221.31 116.696 221.418 117.044 221.418 117.452C221.418 117.956 221.238 118.364 220.878 118.676C220.542 118.988 220.158 119.144 219.726 119.144C219.126 119.144 218.658 118.904 218.322 118.424L211.338 109.064L204.498 118.388C204.138 118.892 203.67 119.144 203.094 119.144C202.662 119.144 202.29 119 201.978 118.712C201.69 118.4 201.546 118.052 201.546 117.668C201.546 117.26 201.69 116.864 201.978 116.48L209.358 106.436L201.942 96.464C201.702 96.152 201.582 95.804 201.582 95.42C201.582 94.94 201.75 94.532 202.086 94.196C202.446 93.86 202.854 93.692 203.31 93.692C203.574 93.692 203.826 93.752 204.066 93.872C204.33 93.992 204.546 94.172 204.714 94.412L211.626 103.7L218.466 94.52C218.874 93.992 219.33 93.728 219.834 93.728C220.266 93.728 220.638 93.896 220.95 94.232C221.286 94.544 221.454 94.904 221.454 95.312C221.454 95.672 221.334 96.02 221.094 96.356L213.606 106.364L221.094 116.408Z" fill="#FDFDFD"/>
<path d="M19.028 53.8C19.508 53.824 19.892 54.004 20.18 54.34C20.492 54.652 20.648 55.048 20.648 55.528V77.272C20.648 77.752 20.468 78.16 20.108 78.496C19.748 78.832 19.304 79 18.776 79C18.248 79 17.816 78.832 17.48 78.496C17.144 78.16 16.976 77.752 16.976 77.272V58.552L13.808 60.46C13.544 60.628 13.244 60.712 12.908 60.712C12.428 60.712 12.02 60.532 11.684 60.172C11.348 59.788 11.18 59.38 11.18 58.948C11.18 58.66 11.264 58.384 11.432 58.12C11.6 57.856 11.816 57.64 12.08 57.472L17.768 54.052C18.104 53.884 18.524 53.8 19.028 53.8ZM40.4691 75.832C40.9251 75.832 41.3091 75.988 41.6211 76.3C41.9331 76.612 42.0891 76.996 42.0891 77.452C42.0891 77.908 41.9331 78.28 41.6211 78.568C41.3091 78.856 40.9251 79 40.4691 79H27.6891C27.2091 79 26.8131 78.856 26.5011 78.568C26.1891 78.256 26.0331 77.848 26.0331 77.344C26.0331 76.912 26.2011 76.504 26.5371 76.12L34.5651 67.408C36.7971 65.032 37.9131 62.932 37.9131 61.108C37.9131 59.812 37.4811 58.744 36.6171 57.904C35.7771 57.04 34.6971 56.608 33.3771 56.608C32.4891 56.608 31.6371 56.86 30.8211 57.364C30.0051 57.868 29.3451 58.588 28.8411 59.524C28.4571 60.028 28.0011 60.28 27.4731 60.28C27.0651 60.28 26.6811 60.124 26.3211 59.812C25.9611 59.5 25.7811 59.14 25.7811 58.732C25.7811 58.468 25.8651 58.192 26.0331 57.904C26.2251 57.616 26.4891 57.28 26.8251 56.896C27.6171 55.84 28.6251 55 29.8491 54.376C31.0731 53.752 32.3091 53.44 33.5571 53.44C35.1651 53.44 36.5571 53.764 37.7331 54.412C38.9091 55.06 39.8091 55.948 40.4331 57.076C41.0811 58.204 41.4051 59.5 41.4051 60.964C41.4051 63.724 39.9171 66.7 36.9411 69.892L31.5051 75.832H40.4691ZM53.2789 63.052C54.6469 63.052 55.8709 63.4 56.9509 64.096C58.0549 64.768 58.9189 65.692 59.5429 66.868C60.1669 68.044 60.4789 69.364 60.4789 70.828C60.4789 72.532 60.0829 74.032 59.2909 75.328C58.4989 76.624 57.4069 77.62 56.0149 78.316C54.6229 79.012 53.0269 79.36 51.2269 79.36C50.2669 79.36 49.3309 79.228 48.4189 78.964C47.5309 78.7 46.7629 78.316 46.1149 77.812C45.4669 77.452 45.1429 76.96 45.1429 76.336C45.1429 75.88 45.2989 75.46 45.6109 75.076C45.9469 74.692 46.3429 74.5 46.7989 74.5C47.2309 74.5 47.6629 74.656 48.0949 74.968C49.0789 75.88 50.3149 76.336 51.8029 76.336C52.7389 76.336 53.6029 76.12 54.3949 75.688C55.2109 75.256 55.8589 74.644 56.3389 73.852C56.8189 73.036 57.0589 72.1 57.0589 71.044C57.0589 69.484 56.5789 68.284 55.6189 67.444C54.6589 66.604 53.5069 66.184 52.1629 66.184C51.7789 66.184 51.2269 66.268 50.5069 66.436C49.9789 66.58 49.5829 66.652 49.3189 66.652C48.8869 66.652 48.5389 66.508 48.2749 66.22C48.0109 65.908 47.8789 65.524 47.8789 65.068C47.8789 64.804 47.9269 64.576 48.0229 64.384C48.1189 64.192 48.2749 63.964 48.4909 63.7L54.6109 56.968H46.2949C45.8389 56.968 45.4549 56.812 45.1429 56.5C44.8309 56.188 44.6749 55.804 44.6749 55.348C44.6749 54.892 44.8309 54.52 45.1429 54.232C45.4549 53.944 45.8389 53.8 46.2949 53.8H57.7789C58.3309 53.8 58.7629 53.968 59.0749 54.304C59.3869 54.64 59.5429 55.048 59.5429 55.528C59.5429 55.96 59.3149 56.404 58.8589 56.86L53.2789 63.052ZM65.9323 78.964C65.3563 78.964 64.9123 78.808 64.6003 78.496C64.3123 78.184 64.1683 77.728 64.1683 77.128V76.444C64.1683 75.868 64.3123 75.424 64.6003 75.112C64.9123 74.8 65.3563 74.644 65.9323 74.644H66.2923C66.8923 74.644 67.3363 74.8 67.6243 75.112C67.9363 75.424 68.0923 75.868 68.0923 76.444V77.128C68.0923 78.352 67.4923 78.964 66.2923 78.964H65.9323ZM91.1217 76.408C91.3377 76.696 91.4457 77.044 91.4457 77.452C91.4457 77.956 91.2657 78.364 90.9057 78.676C90.5697 78.988 90.1857 79.144 89.7537 79.144C89.1537 79.144 88.6857 78.904 88.3497 78.424L81.3657 69.064L74.5257 78.388C74.1657 78.892 73.6977 79.144 73.1217 79.144C72.6897 79.144 72.3177 79 72.0057 78.712C71.7177 78.4 71.5737 78.052 71.5737 77.668C71.5737 77.26 71.7177 76.864 72.0057 76.48L79.3857 66.436L71.9697 56.464C71.7297 56.152 71.6097 55.804 71.6097 55.42C71.6097 54.94 71.7777 54.532 72.1137 54.196C72.4737 53.86 72.8817 53.692 73.3377 53.692C73.6017 53.692 73.8537 53.752 74.0937 53.872C74.3577 53.992 74.5737 54.172 74.7417 54.412L81.6537 63.7L88.4937 54.52C88.9017 53.992 89.3577 53.728 89.8617 53.728C90.2937 53.728 90.6657 53.896 90.9777 54.232C91.3137 54.544 91.4817 54.904 91.4817 55.312C91.4817 55.672 91.3617 56.02 91.1217 56.356L83.6337 66.364L91.1217 76.408ZM113.938 76.408C114.154 76.696 114.262 77.044 114.262 77.452C114.262 77.956 114.082 78.364 113.722 78.676C113.386 78.988 113.002 79.144 112.57 79.144C111.97 79.144 111.502 78.904 111.166 78.424L104.182 69.064L97.3421 78.388C96.9821 78.892 96.5141 79.144 95.9381 79.144C95.5061 79.144 95.1341 79 94.8221 78.712C94.5341 78.4 94.3901 78.052 94.3901 77.668C94.3901 77.26 94.5341 76.864 94.8221 76.48L102.202 66.436L94.7861 56.464C94.5461 56.152 94.4261 55.804 94.4261 55.42C94.4261 54.94 94.5941 54.532 94.9301 54.196C95.2901 53.86 95.6981 53.692 96.1541 53.692C96.4181 53.692 96.6701 53.752 96.9101 53.872C97.1741 53.992 97.3901 54.172 97.5581 54.412L104.47 63.7L111.31 54.52C111.718 53.992 112.174 53.728 112.678 53.728C113.11 53.728 113.482 53.896 113.794 54.232C114.13 54.544 114.298 54.904 114.298 55.312C114.298 55.672 114.178 56.02 113.938 56.356L106.45 66.364L113.938 76.408ZM119.51 78.964C118.934 78.964 118.49 78.808 118.178 78.496C117.89 78.184 117.746 77.728 117.746 77.128V76.444C117.746 75.868 117.89 75.424 118.178 75.112C118.49 74.8 118.934 74.644 119.51 74.644H119.87C120.47 74.644 120.914 74.8 121.202 75.112C121.514 75.424 121.67 75.868 121.67 76.444V77.128C121.67 78.352 121.07 78.964 119.87 78.964H119.51ZM144.7 76.408C144.916 76.696 145.024 77.044 145.024 77.452C145.024 77.956 144.844 78.364 144.484 78.676C144.148 78.988 143.764 79.144 143.332 79.144C142.732 79.144 142.264 78.904 141.928 78.424L134.944 69.064L128.104 78.388C127.744 78.892 127.276 79.144 126.7 79.144C126.268 79.144 125.896 79 125.584 78.712C125.296 78.4 125.152 78.052 125.152 77.668C125.152 77.26 125.296 76.864 125.584 76.48L132.964 66.436L125.548 56.464C125.308 56.152 125.188 55.804 125.188 55.42C125.188 54.94 125.356 54.532 125.692 54.196C126.052 53.86 126.46 53.692 126.916 53.692C127.18 53.692 127.432 53.752 127.672 53.872C127.936 53.992 128.152 54.172 128.32 54.412L135.232 63.7L142.072 54.52C142.48 53.992 142.936 53.728 143.44 53.728C143.872 53.728 144.244 53.896 144.556 54.232C144.892 54.544 145.06 54.904 145.06 55.312C145.06 55.672 144.94 56.02 144.7 56.356L137.212 66.364L144.7 76.408ZM167.516 76.408C167.732 76.696 167.84 77.044 167.84 77.452C167.84 77.956 167.66 78.364 167.3 78.676C166.964 78.988 166.58 79.144 166.148 79.144C165.548 79.144 165.08 78.904 164.744 78.424L157.76 69.064L150.92 78.388C150.56 78.892 150.092 79.144 149.516 79.144C149.084 79.144 148.712 79 148.4 78.712C148.112 78.4 147.968 78.052 147.968 77.668C147.968 77.26 148.112 76.864 148.4 76.48L155.78 66.436L148.364 56.464C148.124 56.152 148.004 55.804 148.004 55.42C148.004 54.94 148.172 54.532 148.508 54.196C148.868 53.86 149.276 53.692 149.732 53.692C149.996 53.692 150.248 53.752 150.488 53.872C150.752 53.992 150.968 54.172 151.136 54.412L158.048 63.7L164.888 54.52C165.296 53.992 165.752 53.728 166.256 53.728C166.688 53.728 167.06 53.896 167.372 54.232C167.708 54.544 167.876 54.904 167.876 55.312C167.876 55.672 167.756 56.02 167.516 56.356L160.028 66.364L167.516 76.408ZM173.089 78.964C172.513 78.964 172.069 78.808 171.757 78.496C171.469 78.184 171.325 77.728 171.325 77.128V76.444C171.325 75.868 171.469 75.424 171.757 75.112C172.069 74.8 172.513 74.644 173.089 74.644H173.449C174.049 74.644 174.493 74.8 174.781 75.112C175.093 75.424 175.249 75.868 175.249 76.444V77.128C175.249 78.352 174.649 78.964 173.449 78.964H173.089ZM198.278 76.408C198.494 76.696 198.602 77.044 198.602 77.452C198.602 77.956 198.422 78.364 198.062 78.676C197.726 78.988 197.342 79.144 196.91 79.144C196.31 79.144 195.842 78.904 195.506 78.424L188.522 69.064L181.682 78.388C181.322 78.892 180.854 79.144 180.278 79.144C179.846 79.144 179.474 79 179.162 78.712C178.874 78.4 178.73 78.052 178.73 77.668C178.73 77.26 178.874 76.864 179.162 76.48L186.542 66.436L179.126 56.464C178.886 56.152 178.766 55.804 178.766 55.42C178.766 54.94 178.934 54.532 179.27 54.196C179.63 53.86 180.038 53.692 180.494 53.692C180.758 53.692 181.01 53.752 181.25 53.872C181.514 53.992 181.73 54.172 181.898 54.412L188.81 63.7L195.65 54.52C196.058 53.992 196.514 53.728 197.018 53.728C197.45 53.728 197.822 53.896 198.134 54.232C198.47 54.544 198.638 54.904 198.638 55.312C198.638 55.672 198.518 56.02 198.278 56.356L190.79 66.364L198.278 76.408ZM221.094 76.408C221.31 76.696 221.418 77.044 221.418 77.452C221.418 77.956 221.238 78.364 220.878 78.676C220.542 78.988 220.158 79.144 219.726 79.144C219.126 79.144 218.658 78.904 218.322 78.424L211.338 69.064L204.498 78.388C204.138 78.892 203.67 79.144 203.094 79.144C202.662 79.144 202.29 79 201.978 78.712C201.69 78.4 201.546 78.052 201.546 77.668C201.546 77.26 201.69 76.864 201.978 76.48L209.358 66.436L201.942 56.464C201.702 56.152 201.582 55.804 201.582 55.42C201.582 54.94 201.75 54.532 202.086 54.196C202.446 53.86 202.854 53.692 203.31 53.692C203.574 53.692 203.826 53.752 204.066 53.872C204.33 53.992 204.546 54.172 204.714 54.412L211.626 63.7L218.466 54.52C218.874 53.992 219.33 53.728 219.834 53.728C220.266 53.728 220.638 53.896 220.95 54.232C221.286 54.544 221.454 54.904 221.454 55.312C221.454 55.672 221.334 56.02 221.094 56.356L213.606 66.364L221.094 76.408Z" fill="#FDFDFD"/>
<defs>
<filter id="filter0_d" x="196" y="0" width="38" height="38" filterUnits="userSpaceOnUse" color-interpolation-filters="sRGB">
<feFlood flood-opacity="0" result="BackgroundImageFix"/>
<feColorMatrix in="SourceAlpha" type="matrix" values="0 0 0 0 0 0 0 0 0 0 0 0 0 0 0 0 0 0 127 0" result="hardAlpha"/>
<feOffset dy="4"/>
<feGaussianBlur stdDeviation="2"/>
<feColorMatrix type="matrix" values="0 0 0 0 0 0 0 0 0 0 0 0 0 0 0 0 0 0 0.25 0"/>
<feBlend mode="normal" in2="BackgroundImageFix" result="effect1_dropShadow"/>
<feBlend mode="normal" in="SourceGraphic" in2="effect1_dropShadow" result="shape"/>
</filter>
<filter id="filter1_d" x="31" y="97" width="38" height="38" filterUnits="userSpaceOnUse" color-interpolation-filters="sRGB">
<feFlood flood-opacity="0" result="BackgroundImageFix"/>
<feColorMatrix in="SourceAlpha" type="matrix" values="0 0 0 0 0 0 0 0 0 0 0 0 0 0 0 0 0 0 127 0" result="hardAlpha"/>
<feOffset dy="4"/>
<feGaussianBlur stdDeviation="2"/>
<feColorMatrix type="matrix" values="0 0 0 0 0 0 0 0 0 0 0 0 0 0 0 0 0 0 0.25 0"/>
<feBlend mode="normal" in2="BackgroundImageFix" result="effect1_dropShadow"/>
<feBlend mode="normal" in="SourceGraphic" in2="effect1_dropShadow" result="shape"/>
</filter>
<filter id="filter2_d" x="1" y="97" width="38" height="38" filterUnits="userSpaceOnUse" color-interpolation-filters="sRGB">
<feFlood flood-opacity="0" result="BackgroundImageFix"/>
<feColorMatrix in="SourceAlpha" type="matrix" values="0 0 0 0 0 0 0 0 0 0 0 0 0 0 0 0 0 0 127 0" result="hardAlpha"/>
<feOffset dy="4"/>
<feGaussianBlur stdDeviation="2"/>
<feColorMatrix type="matrix" values="0 0 0 0 0 0 0 0 0 0 0 0 0 0 0 0 0 0 0.25 0"/>
<feBlend mode="normal" in2="BackgroundImageFix" result="effect1_dropShadow"/>
<feBlend mode="normal" in="SourceGraphic" in2="effect1_dropShadow" result="shape"/>
</filter>
<filter id="filter3_d" x="1" y="31" width="233" height="75" filterUnits="userSpaceOnUse" color-interpolation-filters="sRGB">
<feFlood flood-opacity="0" result="BackgroundImageFix"/>
<feColorMatrix in="SourceAlpha" type="matrix" values="0 0 0 0 0 0 0 0 0 0 0 0 0 0 0 0 0 0 127 0" result="hardAlpha"/>
<feOffset dy="4"/>
<feGaussianBlur stdDeviation="2"/>
<feColorMatrix type="matrix" values="0 0 0 0 0 0 0 0 0 0 0 0 0 0 0 0 0 0 0.25 0"/>
<feBlend mode="normal" in2="BackgroundImageFix" result="effect1_dropShadow"/>
<feBlend mode="normal" in="SourceGraphic" in2="effect1_dropShadow" result="shape"/>
</filter>
<filter id="filter4_d" x="30" y="133" width="38" height="38" filterUnits="userSpaceOnUse" color-interpolation-filters="sRGB">
<feFlood flood-opacity="0" result="BackgroundImageFix"/>
<feColorMatrix in="SourceAlpha" type="matrix" values="0 0 0 0 0 0 0 0 0 0 0 0 0 0 0 0 0 0 127 0" result="hardAlpha"/>
<feOffset dy="4"/>
<feGaussianBlur stdDeviation="2"/>
<feColorMatrix type="matrix" values="0 0 0 0 0 0 0 0 0 0 0 0 0 0 0 0 0 0 0.25 0"/>
<feBlend mode="normal" in2="BackgroundImageFix" result="effect1_dropShadow"/>
<feBlend mode="normal" in="SourceGraphic" in2="effect1_dropShadow" result="shape"/>
</filter>
<filter id="filter5_d" x="0" y="133" width="38" height="38" filterUnits="userSpaceOnUse" color-interpolation-filters="sRGB">
<feFlood flood-opacity="0" result="BackgroundImageFix"/>
<feColorMatrix in="SourceAlpha" type="matrix" values="0 0 0 0 0 0 0 0 0 0 0 0 0 0 0 0 0 0 127 0" result="hardAlpha"/>
<feOffset dy="4"/>
<feGaussianBlur stdDeviation="2"/>
<feColorMatrix type="matrix" values="0 0 0 0 0 0 0 0 0 0 0 0 0 0 0 0 0 0 0.25 0"/>
<feBlend mode="normal" in2="BackgroundImageFix" result="effect1_dropShadow"/>
<feBlend mode="normal" in="SourceGraphic" in2="effect1_dropShadow" result="shape"/>
</filter>
<filter id="filter6_d" x="0" y="67" width="233" height="75" filterUnits="userSpaceOnUse" color-interpolation-filters="sRGB">
<feFlood flood-opacity="0" result="BackgroundImageFix"/>
<feColorMatrix in="SourceAlpha" type="matrix" values="0 0 0 0 0 0 0 0 0 0 0 0 0 0 0 0 0 0 127 0" result="hardAlpha"/>
<feOffset dy="4"/>
<feGaussianBlur stdDeviation="2"/>
<feColorMatrix type="matrix" values="0 0 0 0 0 0 0 0 0 0 0 0 0 0 0 0 0 0 0.25 0"/>
<feBlend mode="normal" in2="BackgroundImageFix" result="effect1_dropShadow"/>
<feBlend mode="normal" in="SourceGraphic" in2="effect1_dropShadow" result="shape"/>
</filter>
</defs>
</svg>
