<svg width="233" height="175" viewBox="0 0 233 175" fill="none" xmlns="http://www.w3.org/2000/svg">
<g filter="url(#filter0_d)">
<rect x="199" width="30" height="30" fill="#DD0270" fill-opacity="0.5"/>
</g>
<g filter="url(#filter1_d)">
<rect x="34" y="97" width="30" height="30" fill="#DD0270" fill-opacity="0.5"/>
</g>
<g filter="url(#filter2_d)">
<rect x="4" y="97" width="30" height="30" fill="#DD0270" fill-opacity="0.75"/>
</g>
<g filter="url(#filter3_d)">
<rect x="4" y="31" width="225" height="67" fill="#DD0270"/>
</g>
<g filter="url(#filter4_d)">
<rect x="34" y="137" width="30" height="30" fill="#DD0270" fill-opacity="0.5"/>
</g>
<g filter="url(#filter5_d)">
<rect x="4" y="137" width="30" height="30" fill="#DD0270" fill-opacity="0.75"/>
</g>
<g filter="url(#filter6_d)">
<rect x="4" y="71" width="225" height="67" fill="#DD0270"/>
</g>
<path d="M30.848 116.832C31.304 116.832 31.688 116.988 32 117.3C32.312 117.612 32.468 117.996 32.468 118.452C32.468 118.908 32.312 119.28 32 119.568C31.688 119.856 31.304 120 30.848 120H18.068C17.588 120 17.192 119.856 16.88 119.568C16.568 119.256 16.412 118.848 16.412 118.344C16.412 117.912 16.58 117.504 16.916 117.12L24.944 108.408C27.176 106.032 28.292 103.932 28.292 102.108C28.292 100.812 27.86 99.744 26.996 98.904C26.156 98.04 25.076 97.608 23.756 97.608C22.868 97.608 22.016 97.86 21.2 98.364C20.384 98.868 19.724 99.588 19.22 100.524C18.836 101.028 18.38 101.28 17.852 101.28C17.444 101.28 17.06 101.124 16.7 100.812C16.34 100.5 16.16 100.14 16.16 99.732C16.16 99.468 16.244 99.192 16.412 98.904C16.604 98.616 16.868 98.28 17.204 97.896C17.996 96.84 19.004 96 20.228 95.376C21.452 94.752 22.688 94.44 23.936 94.44C25.544 94.44 26.936 94.764 28.112 95.412C29.288 96.06 30.188 96.948 30.812 98.076C31.46 99.204 31.784 100.5 31.784 101.964C31.784 104.724 30.296 107.7 27.32 110.892L21.884 116.832H30.848ZM44.6658 120.36C42.6978 120.36 41.0178 119.808 39.6258 118.704C38.2338 117.6 37.1778 116.076 36.4578 114.132C35.7618 112.188 35.4138 109.944 35.4138 107.4C35.4138 104.856 35.7618 102.612 36.4578 100.668C37.1778 98.724 38.2338 97.2 39.6258 96.096C41.0178 94.992 42.6978 94.44 44.6658 94.44C46.6338 94.44 48.3138 94.992 49.7058 96.096C51.0978 97.2 52.1418 98.724 52.8378 100.668C53.5578 102.612 53.9178 104.856 53.9178 107.4C53.9178 109.944 53.5578 112.188 52.8378 114.132C52.1418 116.076 51.0978 117.6 49.7058 118.704C48.3138 119.808 46.6338 120.36 44.6658 120.36ZM44.6658 116.904C46.4178 116.904 47.7738 116.076 48.7338 114.42C49.7178 112.764 50.2098 110.424 50.2098 107.4C50.2098 104.376 49.7178 102.036 48.7338 100.38C47.7738 98.724 46.4178 97.896 44.6658 97.896C42.9138 97.896 41.5458 98.724 40.5618 100.38C39.6018 102.036 39.1218 104.376 39.1218 107.4C39.1218 110.424 39.6018 112.764 40.5618 114.42C41.5458 116.076 42.9138 116.904 44.6658 116.904ZM66.4978 120.36C64.5298 120.36 62.8498 119.808 61.4578 118.704C60.0658 117.6 59.0098 116.076 58.2898 114.132C57.5938 112.188 57.2458 109.944 57.2458 107.4C57.2458 104.856 57.5938 102.612 58.2898 100.668C59.0098 98.724 60.0658 97.2 61.4578 96.096C62.8498 94.992 64.5298 94.44 66.4978 94.44C68.4658 94.44 70.1458 94.992 71.5378 96.096C72.9298 97.2 73.9738 98.724 74.6698 100.668C75.3898 102.612 75.7498 104.856 75.7498 107.4C75.7498 109.944 75.3898 112.188 74.6698 114.132C73.9738 116.076 72.9298 117.6 71.5378 118.704C70.1458 119.808 68.4658 120.36 66.4978 120.36ZM66.4978 116.904C68.2498 116.904 69.6058 116.076 70.5658 114.42C71.5498 112.764 72.0418 110.424 72.0418 107.4C72.0418 104.376 71.5498 102.036 70.5658 100.38C69.6058 98.724 68.2498 97.896 66.4978 97.896C64.7458 97.896 63.3778 98.724 62.3938 100.38C61.4338 102.036 60.9538 104.376 60.9538 107.4C60.9538 110.424 61.4338 112.764 62.3938 114.42C63.3778 116.076 64.7458 116.904 66.4978 116.904ZM85.4499 94.8C85.9299 94.824 86.3139 95.004 86.6019 95.34C86.9139 95.652 87.0699 96.048 87.0699 96.528V118.272C87.0699 118.752 86.8899 119.16 86.5299 119.496C86.1699 119.832 85.7259 120 85.1979 120C84.6699 120 84.2379 119.832 83.9019 119.496C83.5659 119.16 83.3979 118.752 83.3979 118.272V99.552L80.2299 101.46C79.9659 101.628 79.6659 101.712 79.3299 101.712C78.8499 101.712 78.4419 101.532 78.1059 101.172C77.7699 100.788 77.6019 100.38 77.6019 99.948C77.6019 99.66 77.6859 99.384 77.8539 99.12C78.0219 98.856 78.2379 98.64 78.5019 98.472L84.1899 95.052C84.5259 94.884 84.9459 94.8 85.4499 94.8ZM94.111 105.528C93.535 105.528 93.091 105.372 92.779 105.06C92.491 104.748 92.347 104.292 92.347 103.692V103.044C92.347 102.444 92.491 101.988 92.779 101.676C93.091 101.364 93.535 101.208 94.111 101.208H94.507C95.083 101.208 95.515 101.364 95.803 101.676C96.115 101.988 96.271 102.444 96.271 103.044V103.692C96.271 104.292 96.115 104.748 95.803 105.06C95.515 105.372 95.083 105.528 94.507 105.528H94.111ZM94.111 120C93.535 120 93.091 119.844 92.779 119.532C92.491 119.196 92.347 118.74 92.347 118.164V117.48C92.347 116.904 92.491 116.46 92.779 116.148C93.091 115.812 93.535 115.644 94.111 115.644H94.507C95.083 115.644 95.515 115.812 95.803 116.148C96.115 116.46 96.271 116.904 96.271 117.48V118.164C96.271 118.74 96.115 119.196 95.803 119.532C95.515 119.844 95.083 120 94.507 120H94.111ZM119.61 117.408C119.826 117.696 119.934 118.044 119.934 118.452C119.934 118.956 119.754 119.364 119.394 119.676C119.058 119.988 118.674 120.144 118.242 120.144C117.642 120.144 117.174 119.904 116.838 119.424L109.854 110.064L103.014 119.388C102.654 119.892 102.186 120.144 101.61 120.144C101.178 120.144 100.806 120 100.494 119.712C100.206 119.4 100.062 119.052 100.062 118.668C100.062 118.26 100.206 117.864 100.494 117.48L107.874 107.436L100.458 97.464C100.218 97.152 100.098 96.804 100.098 96.42C100.098 95.94 100.266 95.532 100.602 95.196C100.962 94.86 101.37 94.692 101.826 94.692C102.09 94.692 102.342 94.752 102.582 94.872C102.846 94.992 103.062 95.172 103.23 95.412L110.142 104.7L116.982 95.52C117.39 94.992 117.846 94.728 118.35 94.728C118.782 94.728 119.154 94.896 119.466 95.232C119.802 95.544 119.97 95.904 119.97 96.312C119.97 96.672 119.85 97.02 119.61 97.356L112.122 107.364L119.61 117.408ZM142.426 117.408C142.642 117.696 142.75 118.044 142.75 118.452C142.75 118.956 142.57 119.364 142.21 119.676C141.874 119.988 141.49 120.144 141.058 120.144C140.458 120.144 139.99 119.904 139.654 119.424L132.67 110.064L125.83 119.388C125.47 119.892 125.002 120.144 124.426 120.144C123.994 120.144 123.622 120 123.31 119.712C123.022 119.4 122.878 119.052 122.878 118.668C122.878 118.26 123.022 117.864 123.31 117.48L130.69 107.436L123.274 97.464C123.034 97.152 122.914 96.804 122.914 96.42C122.914 95.94 123.082 95.532 123.418 95.196C123.778 94.86 124.186 94.692 124.642 94.692C124.906 94.692 125.158 94.752 125.398 94.872C125.662 94.992 125.878 95.172 126.046 95.412L132.958 104.7L139.798 95.52C140.206 94.992 140.662 94.728 141.166 94.728C141.598 94.728 141.97 94.896 142.282 95.232C142.618 95.544 142.786 95.904 142.786 96.312C142.786 96.672 142.666 97.02 142.426 97.356L134.938 107.364L142.426 117.408ZM165.243 117.408C165.459 117.696 165.567 118.044 165.567 118.452C165.567 118.956 165.387 119.364 165.027 119.676C164.691 119.988 164.307 120.144 163.875 120.144C163.275 120.144 162.807 119.904 162.471 119.424L155.487 110.064L148.647 119.388C148.287 119.892 147.819 120.144 147.243 120.144C146.811 120.144 146.439 120 146.127 119.712C145.839 119.4 145.695 119.052 145.695 118.668C145.695 118.26 145.839 117.864 146.127 117.48L153.507 107.436L146.091 97.464C145.851 97.152 145.731 96.804 145.731 96.42C145.731 95.94 145.899 95.532 146.235 95.196C146.595 94.86 147.003 94.692 147.459 94.692C147.723 94.692 147.975 94.752 148.215 94.872C148.479 94.992 148.695 95.172 148.863 95.412L155.775 104.7L162.615 95.52C163.023 94.992 163.479 94.728 163.983 94.728C164.415 94.728 164.787 94.896 165.099 95.232C165.435 95.544 165.603 95.904 165.603 96.312C165.603 96.672 165.483 97.02 165.243 97.356L157.755 107.364L165.243 117.408ZM188.059 117.408C188.275 117.696 188.383 118.044 188.383 118.452C188.383 118.956 188.203 119.364 187.843 119.676C187.507 119.988 187.123 120.144 186.691 120.144C186.091 120.144 185.623 119.904 185.287 119.424L178.303 110.064L171.463 119.388C171.103 119.892 170.635 120.144 170.059 120.144C169.627 120.144 169.255 120 168.943 119.712C168.655 119.4 168.511 119.052 168.511 118.668C168.511 118.26 168.655 117.864 168.943 117.48L176.323 107.436L168.907 97.464C168.667 97.152 168.547 96.804 168.547 96.42C168.547 95.94 168.715 95.532 169.051 95.196C169.411 94.86 169.819 94.692 170.275 94.692C170.539 94.692 170.791 94.752 171.031 94.872C171.295 94.992 171.511 95.172 171.679 95.412L178.591 104.7L185.431 95.52C185.839 94.992 186.295 94.728 186.799 94.728C187.231 94.728 187.603 94.896 187.915 95.232C188.251 95.544 188.419 95.904 188.419 96.312C188.419 96.672 188.299 97.02 188.059 97.356L180.571 107.364L188.059 117.408ZM193.92 105.528C193.344 105.528 192.9 105.372 192.588 105.06C192.3 104.748 192.156 104.292 192.156 103.692V103.044C192.156 102.444 192.3 101.988 192.588 101.676C192.9 101.364 193.344 101.208 193.92 101.208H194.316C194.892 101.208 195.324 101.364 195.612 101.676C195.924 101.988 196.08 102.444 196.08 103.044V103.692C196.08 104.292 195.924 104.748 195.612 105.06C195.324 105.372 194.892 105.528 194.316 105.528H193.92ZM193.92 120C193.344 120 192.9 119.844 192.588 119.532C192.3 119.196 192.156 118.74 192.156 118.164V117.48C192.156 116.904 192.3 116.46 192.588 116.148C192.9 115.812 193.344 115.644 193.92 115.644H194.316C194.892 115.644 195.324 115.812 195.612 116.148C195.924 116.46 196.08 116.904 196.08 117.48V118.164C196.08 118.74 195.924 119.196 195.612 119.532C195.324 119.844 194.892 120 194.316 120H193.92ZM219.419 117.408C219.635 117.696 219.743 118.044 219.743 118.452C219.743 118.956 219.563 119.364 219.203 119.676C218.867 119.988 218.483 120.144 218.051 120.144C217.451 120.144 216.983 119.904 216.647 119.424L209.663 110.064L202.823 119.388C202.463 119.892 201.995 120.144 201.419 120.144C200.987 120.144 200.615 120 200.303 119.712C200.015 119.4 199.871 119.052 199.871 118.668C199.871 118.26 200.015 117.864 200.303 117.48L207.683 107.436L200.267 97.464C200.027 97.152 199.907 96.804 199.907 96.42C199.907 95.94 200.075 95.532 200.411 95.196C200.771 94.86 201.179 94.692 201.635 94.692C201.899 94.692 202.151 94.752 202.391 94.872C202.655 94.992 202.871 95.172 203.039 95.412L209.951 104.7L216.791 95.52C217.199 94.992 217.655 94.728 218.159 94.728C218.591 94.728 218.963 94.896 219.275 95.232C219.611 95.544 219.779 95.904 219.779 96.312C219.779 96.672 219.659 97.02 219.419 97.356L211.931 107.364L219.419 117.408Z" fill="#FDFDFD"/>
<path d="M29.848 76.832C30.304 76.832 30.688 76.988 31 77.3C31.312 77.612 31.468 77.996 31.468 78.452C31.468 78.908 31.312 79.28 31 79.568C30.688 79.856 30.304 80 29.848 80H17.068C16.588 80 16.192 79.856 15.88 79.568C15.568 79.256 15.412 78.848 15.412 78.344C15.412 77.912 15.58 77.504 15.916 77.12L23.944 68.408C26.176 66.032 27.292 63.932 27.292 62.108C27.292 60.812 26.86 59.744 25.996 58.904C25.156 58.04 24.076 57.608 22.756 57.608C21.868 57.608 21.016 57.86 20.2 58.364C19.384 58.868 18.724 59.588 18.22 60.524C17.836 61.028 17.38 61.28 16.852 61.28C16.444 61.28 16.06 61.124 15.7 60.812C15.34 60.5 15.16 60.14 15.16 59.732C15.16 59.468 15.244 59.192 15.412 58.904C15.604 58.616 15.868 58.28 16.204 57.896C16.996 56.84 18.004 56 19.228 55.376C20.452 54.752 21.688 54.44 22.936 54.44C24.544 54.44 25.936 54.764 27.112 55.412C28.288 56.06 29.188 56.948 29.812 58.076C30.46 59.204 30.784 60.5 30.784 61.964C30.784 64.724 29.296 67.7 26.32 70.892L20.884 76.832H29.848ZM43.6658 80.36C41.6978 80.36 40.0178 79.808 38.6258 78.704C37.2338 77.6 36.1778 76.076 35.4578 74.132C34.7618 72.188 34.4138 69.944 34.4138 67.4C34.4138 64.856 34.7618 62.612 35.4578 60.668C36.1778 58.724 37.2338 57.2 38.6258 56.096C40.0178 54.992 41.6978 54.44 43.6658 54.44C45.6338 54.44 47.3138 54.992 48.7058 56.096C50.0978 57.2 51.1418 58.724 51.8378 60.668C52.5578 62.612 52.9178 64.856 52.9178 67.4C52.9178 69.944 52.5578 72.188 51.8378 74.132C51.1418 76.076 50.0978 77.6 48.7058 78.704C47.3138 79.808 45.6338 80.36 43.6658 80.36ZM43.6658 76.904C45.4178 76.904 46.7738 76.076 47.7338 74.42C48.7178 72.764 49.2098 70.424 49.2098 67.4C49.2098 64.376 48.7178 62.036 47.7338 60.38C46.7738 58.724 45.4178 57.896 43.6658 57.896C41.9138 57.896 40.5458 58.724 39.5618 60.38C38.6018 62.036 38.1218 64.376 38.1218 67.4C38.1218 70.424 38.6018 72.764 39.5618 74.42C40.5458 76.076 41.9138 76.904 43.6658 76.904ZM65.4978 80.36C63.5298 80.36 61.8498 79.808 60.4578 78.704C59.0658 77.6 58.0098 76.076 57.2898 74.132C56.5938 72.188 56.2458 69.944 56.2458 67.4C56.2458 64.856 56.5938 62.612 57.2898 60.668C58.0098 58.724 59.0658 57.2 60.4578 56.096C61.8498 54.992 63.5298 54.44 65.4978 54.44C67.4658 54.44 69.1458 54.992 70.5378 56.096C71.9298 57.2 72.9738 58.724 73.6698 60.668C74.3898 62.612 74.7498 64.856 74.7498 67.4C74.7498 69.944 74.3898 72.188 73.6698 74.132C72.9738 76.076 71.9298 77.6 70.5378 78.704C69.1458 79.808 67.4658 80.36 65.4978 80.36ZM65.4978 76.904C67.2498 76.904 68.6058 76.076 69.5658 74.42C70.5498 72.764 71.0418 70.424 71.0418 67.4C71.0418 64.376 70.5498 62.036 69.5658 60.38C68.6058 58.724 67.2498 57.896 65.4978 57.896C63.7458 57.896 62.3778 58.724 61.3938 60.38C60.4338 62.036 59.9538 64.376 59.9538 67.4C59.9538 70.424 60.4338 72.764 61.3938 74.42C62.3778 76.076 63.7458 76.904 65.4978 76.904ZM84.4499 54.8C84.9299 54.824 85.3139 55.004 85.6019 55.34C85.9139 55.652 86.0699 56.048 86.0699 56.528V78.272C86.0699 78.752 85.8899 79.16 85.5299 79.496C85.1699 79.832 84.7259 80 84.1979 80C83.6699 80 83.2379 79.832 82.9019 79.496C82.5659 79.16 82.3979 78.752 82.3979 78.272V59.552L79.2299 61.46C78.9659 61.628 78.6659 61.712 78.3299 61.712C77.8499 61.712 77.4419 61.532 77.1059 61.172C76.7699 60.788 76.6019 60.38 76.6019 59.948C76.6019 59.66 76.6859 59.384 76.8539 59.12C77.0219 58.856 77.2379 58.64 77.5019 58.472L83.1899 55.052C83.5259 54.884 83.9459 54.8 84.4499 54.8ZM93.111 65.528C92.535 65.528 92.091 65.372 91.779 65.06C91.491 64.748 91.347 64.292 91.347 63.692V63.044C91.347 62.444 91.491 61.988 91.779 61.676C92.091 61.364 92.535 61.208 93.111 61.208H93.507C94.083 61.208 94.515 61.364 94.803 61.676C95.115 61.988 95.271 62.444 95.271 63.044V63.692C95.271 64.292 95.115 64.748 94.803 65.06C94.515 65.372 94.083 65.528 93.507 65.528H93.111ZM93.111 80C92.535 80 92.091 79.844 91.779 79.532C91.491 79.196 91.347 78.74 91.347 78.164V77.48C91.347 76.904 91.491 76.46 91.779 76.148C92.091 75.812 92.535 75.644 93.111 75.644H93.507C94.083 75.644 94.515 75.812 94.803 76.148C95.115 76.46 95.271 76.904 95.271 77.48V78.164C95.271 78.74 95.115 79.196 94.803 79.532C94.515 79.844 94.083 80 93.507 80H93.111ZM118.61 77.408C118.826 77.696 118.934 78.044 118.934 78.452C118.934 78.956 118.754 79.364 118.394 79.676C118.058 79.988 117.674 80.144 117.242 80.144C116.642 80.144 116.174 79.904 115.838 79.424L108.854 70.064L102.014 79.388C101.654 79.892 101.186 80.144 100.61 80.144C100.178 80.144 99.8059 80 99.4939 79.712C99.2059 79.4 99.0619 79.052 99.0619 78.668C99.0619 78.26 99.2059 77.864 99.4939 77.48L106.874 67.436L99.4579 57.464C99.2179 57.152 99.0979 56.804 99.0979 56.42C99.0979 55.94 99.2659 55.532 99.6019 55.196C99.9619 54.86 100.37 54.692 100.826 54.692C101.09 54.692 101.342 54.752 101.582 54.872C101.846 54.992 102.062 55.172 102.23 55.412L109.142 64.7L115.982 55.52C116.39 54.992 116.846 54.728 117.35 54.728C117.782 54.728 118.154 54.896 118.466 55.232C118.802 55.544 118.97 55.904 118.97 56.312C118.97 56.672 118.85 57.02 118.61 57.356L111.122 67.364L118.61 77.408ZM141.426 77.408C141.642 77.696 141.75 78.044 141.75 78.452C141.75 78.956 141.57 79.364 141.21 79.676C140.874 79.988 140.49 80.144 140.058 80.144C139.458 80.144 138.99 79.904 138.654 79.424L131.67 70.064L124.83 79.388C124.47 79.892 124.002 80.144 123.426 80.144C122.994 80.144 122.622 80 122.31 79.712C122.022 79.4 121.878 79.052 121.878 78.668C121.878 78.26 122.022 77.864 122.31 77.48L129.69 67.436L122.274 57.464C122.034 57.152 121.914 56.804 121.914 56.42C121.914 55.94 122.082 55.532 122.418 55.196C122.778 54.86 123.186 54.692 123.642 54.692C123.906 54.692 124.158 54.752 124.398 54.872C124.662 54.992 124.878 55.172 125.046 55.412L131.958 64.7L138.798 55.52C139.206 54.992 139.662 54.728 140.166 54.728C140.598 54.728 140.97 54.896 141.282 55.232C141.618 55.544 141.786 55.904 141.786 56.312C141.786 56.672 141.666 57.02 141.426 57.356L133.938 67.364L141.426 77.408ZM164.243 77.408C164.459 77.696 164.567 78.044 164.567 78.452C164.567 78.956 164.387 79.364 164.027 79.676C163.691 79.988 163.307 80.144 162.875 80.144C162.275 80.144 161.807 79.904 161.471 79.424L154.487 70.064L147.647 79.388C147.287 79.892 146.819 80.144 146.243 80.144C145.811 80.144 145.439 80 145.127 79.712C144.839 79.4 144.695 79.052 144.695 78.668C144.695 78.26 144.839 77.864 145.127 77.48L152.507 67.436L145.091 57.464C144.851 57.152 144.731 56.804 144.731 56.42C144.731 55.94 144.899 55.532 145.235 55.196C145.595 54.86 146.003 54.692 146.459 54.692C146.723 54.692 146.975 54.752 147.215 54.872C147.479 54.992 147.695 55.172 147.863 55.412L154.775 64.7L161.615 55.52C162.023 54.992 162.479 54.728 162.983 54.728C163.415 54.728 163.787 54.896 164.099 55.232C164.435 55.544 164.603 55.904 164.603 56.312C164.603 56.672 164.483 57.02 164.243 57.356L156.755 67.364L164.243 77.408ZM187.059 77.408C187.275 77.696 187.383 78.044 187.383 78.452C187.383 78.956 187.203 79.364 186.843 79.676C186.507 79.988 186.123 80.144 185.691 80.144C185.091 80.144 184.623 79.904 184.287 79.424L177.303 70.064L170.463 79.388C170.103 79.892 169.635 80.144 169.059 80.144C168.627 80.144 168.255 80 167.943 79.712C167.655 79.4 167.511 79.052 167.511 78.668C167.511 78.26 167.655 77.864 167.943 77.48L175.323 67.436L167.907 57.464C167.667 57.152 167.547 56.804 167.547 56.42C167.547 55.94 167.715 55.532 168.051 55.196C168.411 54.86 168.819 54.692 169.275 54.692C169.539 54.692 169.791 54.752 170.031 54.872C170.295 54.992 170.511 55.172 170.679 55.412L177.591 64.7L184.431 55.52C184.839 54.992 185.295 54.728 185.799 54.728C186.231 54.728 186.603 54.896 186.915 55.232C187.251 55.544 187.419 55.904 187.419 56.312C187.419 56.672 187.299 57.02 187.059 57.356L179.571 67.364L187.059 77.408ZM192.92 65.528C192.344 65.528 191.9 65.372 191.588 65.06C191.3 64.748 191.156 64.292 191.156 63.692V63.044C191.156 62.444 191.3 61.988 191.588 61.676C191.9 61.364 192.344 61.208 192.92 61.208H193.316C193.892 61.208 194.324 61.364 194.612 61.676C194.924 61.988 195.08 62.444 195.08 63.044V63.692C195.08 64.292 194.924 64.748 194.612 65.06C194.324 65.372 193.892 65.528 193.316 65.528H192.92ZM192.92 80C192.344 80 191.9 79.844 191.588 79.532C191.3 79.196 191.156 78.74 191.156 78.164V77.48C191.156 76.904 191.3 76.46 191.588 76.148C191.9 75.812 192.344 75.644 192.92 75.644H193.316C193.892 75.644 194.324 75.812 194.612 76.148C194.924 76.46 195.08 76.904 195.08 77.48V78.164C195.08 78.74 194.924 79.196 194.612 79.532C194.324 79.844 193.892 80 193.316 80H192.92ZM218.419 77.408C218.635 77.696 218.743 78.044 218.743 78.452C218.743 78.956 218.563 79.364 218.203 79.676C217.867 79.988 217.483 80.144 217.051 80.144C216.451 80.144 215.983 79.904 215.647 79.424L208.663 70.064L201.823 79.388C201.463 79.892 200.995 80.144 200.419 80.144C199.987 80.144 199.615 80 199.303 79.712C199.015 79.4 198.871 79.052 198.871 78.668C198.871 78.26 199.015 77.864 199.303 77.48L206.683 67.436L199.267 57.464C199.027 57.152 198.907 56.804 198.907 56.42C198.907 55.94 199.075 55.532 199.411 55.196C199.771 54.86 200.179 54.692 200.635 54.692C200.899 54.692 201.151 54.752 201.391 54.872C201.655 54.992 201.871 55.172 202.039 55.412L208.951 64.7L215.791 55.52C216.199 54.992 216.655 54.728 217.159 54.728C217.591 54.728 217.963 54.896 218.275 55.232C218.611 55.544 218.779 55.904 218.779 56.312C218.779 56.672 218.659 57.02 218.419 57.356L210.931 67.364L218.419 77.408Z" fill="#FDFDFD"/>
<defs>
<filter id="filter0_d" x="195" y="0" width="38" height="38" filterUnits="userSpaceOnUse" color-interpolation-filters="sRGB">
<feFlood flood-opacity="0" result="BackgroundImageFix"/>
<feColorMatrix in="SourceAlpha" type="matrix" values="0 0 0 0 0 0 0 0 0 0 0 0 0 0 0 0 0 0 127 0" result="hardAlpha"/>
<feOffset dy="4"/>
<feGaussianBlur stdDeviation="2"/>
<feColorMatrix type="matrix" values="0 0 0 0 0 0 0 0 0 0 0 0 0 0 0 0 0 0 0.25 0"/>
<feBlend mode="normal" in2="BackgroundImageFix" result="effect1_dropShadow"/>
<feBlend mode="normal" in="SourceGraphic" in2="effect1_dropShadow" result="shape"/>
</filter>
<filter id="filter1_d" x="30" y="97" width="38" height="38" filterUnits="userSpaceOnUse" color-interpolation-filters="sRGB">
<feFlood flood-opacity="0" result="BackgroundImageFix"/>
<feColorMatrix in="SourceAlpha" type="matrix" values="0 0 0 0 0 0 0 0 0 0 0 0 0 0 0 0 0 0 127 0" result="hardAlpha"/>
<feOffset dy="4"/>
<feGaussianBlur stdDeviation="2"/>
<feColorMatrix type="matrix" values="0 0 0 0 0 0 0 0 0 0 0 0 0 0 0 0 0 0 0.25 0"/>
<feBlend mode="normal" in2="BackgroundImageFix" result="effect1_dropShadow"/>
<feBlend mode="normal" in="SourceGraphic" in2="effect1_dropShadow" result="shape"/>
</filter>
<filter id="filter2_d" x="0" y="97" width="38" height="38" filterUnits="userSpaceOnUse" color-interpolation-filters="sRGB">
<feFlood flood-opacity="0" result="BackgroundImageFix"/>
<feColorMatrix in="SourceAlpha" type="matrix" values="0 0 0 0 0 0 0 0 0 0 0 0 0 0 0 0 0 0 127 0" result="hardAlpha"/>
<feOffset dy="4"/>
<feGaussianBlur stdDeviation="2"/>
<feColorMatrix type="matrix" values="0 0 0 0 0 0 0 0 0 0 0 0 0 0 0 0 0 0 0.25 0"/>
<feBlend mode="normal" in2="BackgroundImageFix" result="effect1_dropShadow"/>
<feBlend mode="normal" in="SourceGraphic" in2="effect1_dropShadow" result="shape"/>
</filter>
<filter id="filter3_d" x="0" y="31" width="233" height="75" filterUnits="userSpaceOnUse" color-interpolation-filters="sRGB">
<feFlood flood-opacity="0" result="BackgroundImageFix"/>
<feColorMatrix in="SourceAlpha" type="matrix" values="0 0 0 0 0 0 0 0 0 0 0 0 0 0 0 0 0 0 127 0" result="hardAlpha"/>
<feOffset dy="4"/>
<feGaussianBlur stdDeviation="2"/>
<feColorMatrix type="matrix" values="0 0 0 0 0 0 0 0 0 0 0 0 0 0 0 0 0 0 0.25 0"/>
<feBlend mode="normal" in2="BackgroundImageFix" result="effect1_dropShadow"/>
<feBlend mode="normal" in="SourceGraphic" in2="effect1_dropShadow" result="shape"/>
</filter>
<filter id="filter4_d" x="30" y="137" width="38" height="38" filterUnits="userSpaceOnUse" color-interpolation-filters="sRGB">
<feFlood flood-opacity="0" result="BackgroundImageFix"/>
<feColorMatrix in="SourceAlpha" type="matrix" values="0 0 0 0 0 0 0 0 0 0 0 0 0 0 0 0 0 0 127 0" result="hardAlpha"/>
<feOffset dy="4"/>
<feGaussianBlur stdDeviation="2"/>
<feColorMatrix type="matrix" values="0 0 0 0 0 0 0 0 0 0 0 0 0 0 0 0 0 0 0.25 0"/>
<feBlend mode="normal" in2="BackgroundImageFix" result="effect1_dropShadow"/>
<feBlend mode="normal" in="SourceGraphic" in2="effect1_dropShadow" result="shape"/>
</filter>
<filter id="filter5_d" x="0" y="137" width="38" height="38" filterUnits="userSpaceOnUse" color-interpolation-filters="sRGB">
<feFlood flood-opacity="0" result="BackgroundImageFix"/>
<feColorMatrix in="SourceAlpha" type="matrix" values="0 0 0 0 0 0 0 0 0 0 0 0 0 0 0 0 0 0 127 0" result="hardAlpha"/>
<feOffset dy="4"/>
<feGaussianBlur stdDeviation="2"/>
<feColorMatrix type="matrix" values="0 0 0 0 0 0 0 0 0 0 0 0 0 0 0 0 0 0 0.25 0"/>
<feBlend mode="normal" in2="BackgroundImageFix" result="effect1_dropShadow"/>
<feBlend mode="normal" in="SourceGraphic" in2="effect1_dropShadow" result="shape"/>
</filter>
<filter id="filter6_d" x="0" y="71" width="233" height="75" filterUnits="userSpaceOnUse" color-interpolation-filters="sRGB">
<feFlood flood-opacity="0" result="BackgroundImageFix"/>
<feColorMatrix in="SourceAlpha" type="matrix" values="0 0 0 0 0 0 0 0 0 0 0 0 0 0 0 0 0 0 127 0" result="hardAlpha"/>
<feOffset dy="4"/>
<feGaussianBlur stdDeviation="2"/>
<feColorMatrix type="matrix" values="0 0 0 0 0 0 0 0 0 0 0 0 0 0 0 0 0 0 0.25 0"/>
<feBlend mode="normal" in2="BackgroundImageFix" result="effect1_dropShadow"/>
<feBlend mode="normal" in="SourceGraphic" in2="effect1_dropShadow" result="shape"/>
</filter>
</defs>
</svg>
