<svg width="233" height="172" viewBox="0 0 233 172" fill="none" xmlns="http://www.w3.org/2000/svg">
<g filter="url(#filter0_d)">
<rect x="34" y="133" width="30" height="30" fill="#DD0270" fill-opacity="0.5"/>
</g>
<g filter="url(#filter1_d)">
<rect x="5" y="134" width="30" height="30" fill="#DD0270" fill-opacity="0.75"/>
</g>
<g filter="url(#filter2_d)">
<rect x="199" width="30" height="30" fill="#DD0270" fill-opacity="0.5"/>
</g>
<g filter="url(#filter3_d)">
<rect x="4" y="25" width="225" height="112" fill="#DD0270" fill-opacity="0.75"/>
</g>
<path d="M105.751 40.139H80.8174C80.2916 40.1395 79.7875 40.3382 79.4157 40.6914C79.0438 41.0445 78.8347 41.5234 78.8341 42.0228V65.7057C78.8347 66.2051 79.0438 66.684 79.4157 67.0371C79.7875 67.3903 80.2916 67.589 80.8174 67.5895H105.751C106.276 67.589 106.781 67.3903 107.152 67.0371C107.524 66.684 107.733 66.2051 107.734 65.7057V42.0228C107.733 41.5234 107.524 41.0445 107.152 40.6914C106.781 40.3382 106.276 40.1395 105.751 40.139ZM107.167 65.7057C107.167 66.0625 107.018 66.4047 106.752 66.657C106.487 66.9093 106.126 67.0511 105.751 67.0513H80.8174C80.4418 67.0511 80.0815 66.9093 79.8159 66.657C79.5502 66.4047 79.4009 66.0625 79.4008 65.7057V42.0228C79.4009 41.666 79.5502 41.3238 79.8159 41.0715C80.0815 40.8192 80.4418 40.6774 80.8174 40.6772H105.751C106.126 40.6774 106.487 40.8192 106.752 41.0715C107.018 41.3238 107.167 41.666 107.167 42.0228V65.7057Z" fill="#3F3D56"/>
<path d="M192.302 40H128.698C127.453 40.0009 126.259 40.1843 125.379 40.5099C124.498 40.8356 124.002 41.2771 124 41.7376V65.2624C124.002 65.7229 124.498 66.1644 125.379 66.4901C126.259 66.8158 127.453 66.9991 128.698 67H192.302C193.547 66.9991 194.741 66.8158 195.621 66.4901C196.502 66.1644 196.998 65.7229 197 65.2624V41.7376C196.998 41.2771 196.502 40.8356 195.621 40.5099C194.741 40.1843 193.547 40.0009 192.302 40Z" fill="#DD0270"/>
<path d="M105.751 75.7978H80.8174C80.3293 75.7987 79.8614 75.9833 79.5162 76.3111C79.171 76.639 78.9767 77.0834 78.9758 77.5471V101.23C78.9767 101.694 79.171 102.138 79.5162 102.466C79.8614 102.794 80.3293 102.978 80.8174 102.979H105.751C106.239 102.978 106.707 102.794 107.052 102.466C107.397 102.138 107.591 101.694 107.592 101.23V77.5471C107.591 77.0834 107.397 76.639 107.052 76.3111C106.707 75.9833 106.239 75.7987 105.751 75.7978Z" fill="#E6E6E6"/>
<path d="M192.302 76H128.698C127.453 76.0009 126.259 76.1843 125.379 76.5099C124.498 76.8356 124.002 77.2771 124 77.7376V101.262C124.002 101.723 124.498 102.164 125.379 102.49C126.259 102.816 127.453 102.999 128.698 103H192.302C193.547 102.999 194.741 102.816 195.621 102.49C196.502 102.164 196.998 101.723 197 101.262V77.7376C196.998 77.2771 196.502 76.8356 195.621 76.5099C194.741 76.1843 193.547 76.0009 192.302 76Z" fill="#E6E6E6"/>
<path d="M99.659 79.7001H74.7258C74.2375 79.6995 73.7694 79.5151 73.4242 79.1871C73.0789 78.8592 72.8847 78.4145 72.8842 77.9508V54.2679C72.8847 53.8042 73.0789 53.3595 73.4242 53.0316C73.7694 52.7036 74.2375 52.5192 74.7258 52.5186H99.659C100.147 52.5192 100.615 52.7036 100.961 53.0316C101.306 53.3595 101.5 53.8042 101.501 54.2679V77.9508C101.5 78.4145 101.306 78.8592 100.961 79.1871C100.615 79.5151 100.147 79.6995 99.659 79.7001Z" fill="#DD0270"/>
<path d="M61.4444 135.432L64.765 134.464L62.4145 121.837L57.5134 123.266L61.4444 135.432Z" fill="#A0616A"/>
<path d="M72.1157 135.526L61.6792 138.569L60.4417 134.738L66.8459 132.872C67.3755 132.717 67.9318 132.663 68.4832 132.713C69.0346 132.763 69.5703 132.916 70.0597 133.162C70.549 133.409 70.9824 133.744 71.3352 134.15C71.688 134.556 71.9532 135.023 72.1157 135.526Z" fill="#2F2E41"/>
<path d="M33.1118 135.505L36.5854 135.505L38.2378 122.778L33.1112 122.779L33.1118 135.505Z" fill="#A0616A"/>
<path d="M43.2845 138.568L32.3676 138.569L32.3674 134.562L39.0664 134.562C39.6203 134.562 40.1688 134.665 40.6806 134.867C41.1923 135.068 41.6573 135.363 42.049 135.735C42.4407 136.107 42.7514 136.549 42.9634 137.035C43.1754 137.521 43.2845 138.042 43.2845 138.568L43.2845 138.568Z" fill="#2F2E41"/>
<path d="M32.8625 98.6141C32.5772 98.3765 32.3501 98.0823 32.1974 97.7523C32.0446 97.4223 31.9699 97.0646 31.9785 96.7042C31.9871 96.3438 32.0788 95.9896 32.2471 95.6665C32.4154 95.3434 32.6562 95.0593 32.9526 94.8342L35.6458 62.6216L41.1228 63.9214L36.7376 95.3438C37.1027 95.8418 37.2628 96.4498 37.1876 97.0525C37.1123 97.6552 36.807 98.2107 36.3293 98.6138C35.8517 99.0169 35.2349 99.2396 34.596 99.2397C33.957 99.2397 33.3403 99.0172 32.8625 98.6141Z" fill="#A0616A"/>
<path d="M43.8306 50.1278C47.6739 50.1278 50.7895 47.1684 50.7895 43.5179C50.7895 39.8673 47.6739 36.9079 43.8306 36.9079C39.9873 36.9079 36.8716 39.8673 36.8716 43.5179C36.8716 47.1684 39.9873 50.1278 43.8306 50.1278Z" fill="#A0616A"/>
<path d="M37.7795 61.6308C36.2093 59.5832 36.161 56.7632 37.8524 54.8047C38.9562 53.5266 40.8026 52.5038 43.8852 52.5038C52.1018 52.5038 55.2185 58.6937 55.2185 58.6937C55.2185 58.6937 58.6185 64.6144 56.6351 69.9968C54.6518 75.3793 54.6518 75.9175 54.6518 75.9175L41.6186 74.841C41.6186 74.841 43.8173 69.5039 37.7795 61.6308Z" fill="#CCCCCC"/>
<path d="M33.7605 66.9886L36.5682 58.2634C36.7563 57.6792 37.0771 57.1413 37.5081 56.6878C37.939 56.2343 38.4696 55.8762 39.0623 55.6389C39.655 55.4016 40.2953 55.2908 40.938 55.3144C41.5807 55.338 42.2101 55.4953 42.7817 55.7754C43.7735 56.2633 44.5328 57.0911 44.9057 58.0911C45.2787 59.0911 45.2373 60.1884 44.79 61.1604L41.2205 68.882L33.7605 66.9886Z" fill="#CCCCCC"/>
<path d="M54.3685 74.5719L65.4185 128.935L59.4685 130.549L45.0186 94.7561L38.5019 131.357L32.2686 132.164C32.2686 132.164 29.5344 83.7369 41.6186 74.841L54.3685 74.5719Z" fill="#2F2E41"/>
<path d="M70.2723 72.024C70.1714 72.138 70.0802 72.2594 69.9995 72.3871L55.9647 73.0334L53.2621 65.1967L48.5696 67.3151L52.9862 78.9873L70.3436 75.763C70.7515 76.186 71.2853 76.481 71.874 76.6088C72.4627 76.7366 73.0784 76.6911 73.6392 76.4784C74.2 76.2658 74.6794 75.896 75.0135 75.4182C75.3477 74.9404 75.5208 74.3774 75.5098 73.8039C75.4989 73.2304 75.3044 72.6737 74.9522 72.2078C74.6001 71.7418 74.1069 71.3888 73.5383 71.1955C72.9698 71.0023 72.3527 70.9781 71.7693 71.1261C71.1859 71.2741 70.6637 71.5872 70.2723 72.024Z" fill="#A0616A"/>
<path d="M46.6061 59.4753C46.5309 58.8685 46.597 58.2535 46.7996 57.6736C47.0022 57.0938 47.3364 56.5633 47.7786 56.1197C48.2208 55.676 48.7602 55.33 49.3587 55.1062C49.9572 54.8823 50.6001 54.7861 51.2421 54.8242C52.3566 54.8922 53.4023 55.3602 54.1671 56.1334C54.9318 56.9066 55.3583 57.9271 55.3602 58.988V67.421L47.7284 68.5363L46.6061 59.4753Z" fill="#CCCCCC"/>
<path d="M45.361 50.1878C44.3165 50.1834 43.5108 49.1389 43.5576 48.1478C43.6044 47.1567 44.3052 46.2847 45.1495 45.7007C45.9938 45.1167 46.984 44.761 47.9256 44.3316C48.8672 43.9022 49.8005 43.3666 50.3819 42.5424C50.7331 42.0029 50.9427 41.3912 50.9932 40.7588C51.0436 40.1263 50.9334 39.4916 50.6718 38.9081C50.1308 37.7409 49.2019 36.7744 48.0274 36.1565C46.2827 35.1864 44.2174 34.8763 42.2427 35.2877C40.2681 35.6992 38.5291 36.8022 37.3721 38.3769L36.1799 41.4604C34.965 42.8481 34.7723 44.9088 35.5191 46.5683C36.2659 48.2278 37.856 49.4764 39.6504 50.07C41.4709 50.6257 43.4197 50.6812 45.272 50.2301" fill="#2F2E41"/>
<path d="M39.0011 39.9179C38.4886 39.1377 37.6002 38.6414 36.6818 38.3502C35.6178 38.0128 34.4862 37.9132 33.3751 38.0592C32.264 38.2052 31.2033 38.5928 30.2757 39.1918C29.3481 39.7909 28.5786 40.5852 28.0271 41.513C27.4756 42.4407 27.1569 43.4769 27.096 44.5408C26.9986 46.2401 27.5588 47.9019 27.888 49.5748C28.2172 51.2476 28.2827 53.0953 27.3116 54.5255C26.5719 55.6149 25.3385 56.3008 24.121 56.8864C23.1064 57.3745 22.0088 57.8326 20.876 57.7354C19.7432 57.6381 18.6047 56.7859 18.6348 55.7059C18.2555 56.4802 17.9995 57.3038 17.875 58.1496C17.7953 58.9989 18.0157 59.9154 18.6615 60.5076C19.6002 61.3685 21.0875 61.3055 22.3776 61.1197C25.1704 60.7176 27.9984 59.9637 30.2048 58.2885C32.4112 56.6132 33.8753 53.8547 33.2942 51.229C33.0515 50.1322 32.4811 49.131 32.0201 48.0992C31.5592 47.0675 31.1993 45.939 31.4111 44.8364C31.5364 44.2683 31.7915 43.7334 32.1583 43.2692C32.5251 42.805 32.9947 42.423 33.534 42.1501C34.6245 41.6115 35.8724 41.4317 37.082 41.639C37.8751 41.7626 38.8653 41.9545 39.3357 41.3356C39.4604 41.1395 39.524 40.9139 39.5193 40.6849C39.5146 40.4559 39.4418 40.2328 39.3092 40.0415C39.0378 39.663 38.6922 39.3378 38.2913 39.0835" fill="#2F2E41"/>
<path d="M134.084 91.856C134.249 91.856 134.387 91.9123 134.5 92.025C134.613 92.1377 134.669 92.2763 134.669 92.441C134.669 92.6057 134.613 92.74 134.5 92.844C134.387 92.948 134.249 93 134.084 93H129.469C129.296 93 129.153 92.948 129.04 92.844C128.927 92.7313 128.871 92.584 128.871 92.402C128.871 92.246 128.932 92.0987 129.053 91.96L131.952 88.814C132.758 87.956 133.161 87.1977 133.161 86.539C133.161 86.071 133.005 85.6853 132.693 85.382C132.39 85.07 132 84.914 131.523 84.914C131.202 84.914 130.895 85.005 130.6 85.187C130.305 85.369 130.067 85.629 129.885 85.967C129.746 86.149 129.582 86.24 129.391 86.24C129.244 86.24 129.105 86.1837 128.975 86.071C128.845 85.9583 128.78 85.8283 128.78 85.681C128.78 85.5857 128.81 85.486 128.871 85.382C128.94 85.278 129.036 85.1567 129.157 85.018C129.443 84.6367 129.807 84.3333 130.249 84.108C130.691 83.8827 131.137 83.77 131.588 83.77C132.169 83.77 132.671 83.887 133.096 84.121C133.521 84.355 133.846 84.6757 134.071 85.083C134.305 85.4903 134.422 85.9583 134.422 86.487C134.422 87.4837 133.885 88.5583 132.81 89.711L130.847 91.856H134.084ZM139.074 93.13C138.363 93.13 137.756 92.9307 137.254 92.532C136.751 92.1333 136.37 91.583 136.11 90.881C135.858 90.179 135.733 89.3687 135.733 88.45C135.733 87.5313 135.858 86.721 136.11 86.019C136.37 85.317 136.751 84.7667 137.254 84.368C137.756 83.9693 138.363 83.77 139.074 83.77C139.784 83.77 140.391 83.9693 140.894 84.368C141.396 84.7667 141.773 85.317 142.025 86.019C142.285 86.721 142.415 87.5313 142.415 88.45C142.415 89.3687 142.285 90.179 142.025 90.881C141.773 91.583 141.396 92.1333 140.894 92.532C140.391 92.9307 139.784 93.13 139.074 93.13ZM139.074 91.882C139.706 91.882 140.196 91.583 140.543 90.985C140.898 90.387 141.076 89.542 141.076 88.45C141.076 87.358 140.898 86.513 140.543 85.915C140.196 85.317 139.706 85.018 139.074 85.018C138.441 85.018 137.947 85.317 137.592 85.915C137.245 86.513 137.072 87.358 137.072 88.45C137.072 89.542 137.245 90.387 137.592 90.985C137.947 91.583 138.441 91.882 139.074 91.882ZM146.958 93.13C146.247 93.13 145.64 92.9307 145.138 92.532C144.635 92.1333 144.254 91.583 143.994 90.881C143.742 90.179 143.617 89.3687 143.617 88.45C143.617 87.5313 143.742 86.721 143.994 86.019C144.254 85.317 144.635 84.7667 145.138 84.368C145.64 83.9693 146.247 83.77 146.958 83.77C147.668 83.77 148.275 83.9693 148.778 84.368C149.28 84.7667 149.657 85.317 149.909 86.019C150.169 86.721 150.299 87.5313 150.299 88.45C150.299 89.3687 150.169 90.179 149.909 90.881C149.657 91.583 149.28 92.1333 148.778 92.532C148.275 92.9307 147.668 93.13 146.958 93.13ZM146.958 91.882C147.59 91.882 148.08 91.583 148.427 90.985C148.782 90.387 148.96 89.542 148.96 88.45C148.96 87.358 148.782 86.513 148.427 85.915C148.08 85.317 147.59 85.018 146.958 85.018C146.325 85.018 145.831 85.317 145.476 85.915C145.129 86.513 144.956 87.358 144.956 88.45C144.956 89.542 145.129 90.387 145.476 90.985C145.831 91.583 146.325 91.882 146.958 91.882ZM153.801 83.9C153.975 83.9087 154.113 83.9737 154.217 84.095C154.33 84.2077 154.386 84.3507 154.386 84.524V92.376C154.386 92.5493 154.321 92.6967 154.191 92.818C154.061 92.9393 153.901 93 153.71 93C153.52 93 153.364 92.9393 153.242 92.818C153.121 92.6967 153.06 92.5493 153.06 92.376V85.616L151.916 86.305C151.821 86.3657 151.713 86.396 151.591 86.396C151.418 86.396 151.271 86.331 151.149 86.201C151.028 86.0623 150.967 85.915 150.967 85.759C150.967 85.655 150.998 85.5553 151.058 85.46C151.119 85.3647 151.197 85.2867 151.292 85.226L153.346 83.991C153.468 83.9303 153.619 83.9 153.801 83.9ZM156.929 87.774C156.721 87.774 156.561 87.7177 156.448 87.605C156.344 87.4923 156.292 87.3277 156.292 87.111V86.877C156.292 86.6603 156.344 86.4957 156.448 86.383C156.561 86.2703 156.721 86.214 156.929 86.214H157.072C157.28 86.214 157.436 86.2703 157.54 86.383C157.653 86.4957 157.709 86.6603 157.709 86.877V87.111C157.709 87.3277 157.653 87.4923 157.54 87.605C157.436 87.7177 157.28 87.774 157.072 87.774H156.929ZM156.929 93C156.721 93 156.561 92.9437 156.448 92.831C156.344 92.7097 156.292 92.545 156.292 92.337V92.09C156.292 91.882 156.344 91.7217 156.448 91.609C156.561 91.4877 156.721 91.427 156.929 91.427H157.072C157.28 91.427 157.436 91.4877 157.54 91.609C157.653 91.7217 157.709 91.882 157.709 92.09V92.337C157.709 92.545 157.653 92.7097 157.54 92.831C157.436 92.9437 157.28 93 157.072 93H156.929ZM166.137 92.064C166.215 92.168 166.254 92.2937 166.254 92.441C166.254 92.623 166.189 92.7703 166.059 92.883C165.938 92.9957 165.799 93.052 165.643 93.052C165.426 93.052 165.257 92.9653 165.136 92.792L162.614 89.412L160.144 92.779C160.014 92.961 159.845 93.052 159.637 93.052C159.481 93.052 159.347 93 159.234 92.896C159.13 92.7833 159.078 92.6577 159.078 92.519C159.078 92.3717 159.13 92.2287 159.234 92.09L161.899 88.463L159.221 84.862C159.134 84.7493 159.091 84.6237 159.091 84.485C159.091 84.3117 159.152 84.1643 159.273 84.043C159.403 83.9217 159.55 83.861 159.715 83.861C159.81 83.861 159.901 83.8827 159.988 83.926C160.083 83.9693 160.161 84.0343 160.222 84.121L162.718 87.475L165.188 84.16C165.335 83.9693 165.5 83.874 165.682 83.874C165.838 83.874 165.972 83.9347 166.085 84.056C166.206 84.1687 166.267 84.2987 166.267 84.446C166.267 84.576 166.224 84.7017 166.137 84.823L163.433 88.437L166.137 92.064ZM174.376 92.064C174.454 92.168 174.493 92.2937 174.493 92.441C174.493 92.623 174.428 92.7703 174.298 92.883C174.177 92.9957 174.038 93.052 173.882 93.052C173.666 93.052 173.497 92.9653 173.375 92.792L170.853 89.412L168.383 92.779C168.253 92.961 168.084 93.052 167.876 93.052C167.72 93.052 167.586 93 167.473 92.896C167.369 92.7833 167.317 92.6577 167.317 92.519C167.317 92.3717 167.369 92.2287 167.473 92.09L170.138 88.463L167.46 84.862C167.374 84.7493 167.33 84.6237 167.33 84.485C167.33 84.3117 167.391 84.1643 167.512 84.043C167.642 83.9217 167.79 83.861 167.954 83.861C168.05 83.861 168.141 83.8827 168.227 83.926C168.323 83.9693 168.401 84.0343 168.461 84.121L170.957 87.475L173.427 84.16C173.575 83.9693 173.739 83.874 173.921 83.874C174.077 83.874 174.212 83.9347 174.324 84.056C174.446 84.1687 174.506 84.2987 174.506 84.446C174.506 84.576 174.463 84.7017 174.376 84.823L171.672 88.437L174.376 92.064ZM182.615 92.064C182.693 92.168 182.732 92.2937 182.732 92.441C182.732 92.623 182.667 92.7703 182.537 92.883C182.416 92.9957 182.277 93.052 182.121 93.052C181.905 93.052 181.736 92.9653 181.614 92.792L179.092 89.412L176.622 92.779C176.492 92.961 176.323 93.052 176.115 93.052C175.959 93.052 175.825 93 175.712 92.896C175.608 92.7833 175.556 92.6577 175.556 92.519C175.556 92.3717 175.608 92.2287 175.712 92.09L178.377 88.463L175.699 84.862C175.613 84.7493 175.569 84.6237 175.569 84.485C175.569 84.3117 175.63 84.1643 175.751 84.043C175.881 83.9217 176.029 83.861 176.193 83.861C176.289 83.861 176.38 83.8827 176.466 83.926C176.562 83.9693 176.64 84.0343 176.7 84.121L179.196 87.475L181.666 84.16C181.814 83.9693 181.978 83.874 182.16 83.874C182.316 83.874 182.451 83.9347 182.563 84.056C182.685 84.1687 182.745 84.2987 182.745 84.446C182.745 84.576 182.702 84.7017 182.615 84.823L179.911 88.437L182.615 92.064ZM190.855 92.064C190.933 92.168 190.972 92.2937 190.972 92.441C190.972 92.623 190.907 92.7703 190.777 92.883C190.655 92.9957 190.517 93.052 190.361 93.052C190.144 93.052 189.975 92.9653 189.854 92.792L187.332 89.412L184.862 92.779C184.732 92.961 184.563 93.052 184.355 93.052C184.199 93.052 184.064 93 183.952 92.896C183.848 92.7833 183.796 92.6577 183.796 92.519C183.796 92.3717 183.848 92.2287 183.952 92.09L186.617 88.463L183.939 84.862C183.852 84.7493 183.809 84.6237 183.809 84.485C183.809 84.3117 183.869 84.1643 183.991 84.043C184.121 83.9217 184.268 83.861 184.433 83.861C184.528 83.861 184.619 83.8827 184.706 83.926C184.801 83.9693 184.879 84.0343 184.94 84.121L187.436 87.475L189.906 84.16C190.053 83.9693 190.218 83.874 190.4 83.874C190.556 83.874 190.69 83.9347 190.803 84.056C190.924 84.1687 190.985 84.2987 190.985 84.446C190.985 84.576 190.941 84.7017 190.855 84.823L188.151 88.437L190.855 92.064Z" fill="black"/>
<path d="M134.084 55.856C134.249 55.856 134.387 55.9123 134.5 56.025C134.613 56.1377 134.669 56.2763 134.669 56.441C134.669 56.6057 134.613 56.74 134.5 56.844C134.387 56.948 134.249 57 134.084 57H129.469C129.296 57 129.153 56.948 129.04 56.844C128.927 56.7313 128.871 56.584 128.871 56.402C128.871 56.246 128.932 56.0987 129.053 55.96L131.952 52.814C132.758 51.956 133.161 51.1977 133.161 50.539C133.161 50.071 133.005 49.6853 132.693 49.382C132.39 49.07 132 48.914 131.523 48.914C131.202 48.914 130.895 49.005 130.6 49.187C130.305 49.369 130.067 49.629 129.885 49.967C129.746 50.149 129.582 50.24 129.391 50.24C129.244 50.24 129.105 50.1837 128.975 50.071C128.845 49.9583 128.78 49.8283 128.78 49.681C128.78 49.5857 128.81 49.486 128.871 49.382C128.94 49.278 129.036 49.1567 129.157 49.018C129.443 48.6367 129.807 48.3333 130.249 48.108C130.691 47.8827 131.137 47.77 131.588 47.77C132.169 47.77 132.671 47.887 133.096 48.121C133.521 48.355 133.846 48.6757 134.071 49.083C134.305 49.4903 134.422 49.9583 134.422 50.487C134.422 51.4837 133.885 52.5583 132.81 53.711L130.847 55.856H134.084ZM139.074 57.13C138.363 57.13 137.756 56.9307 137.254 56.532C136.751 56.1333 136.37 55.583 136.11 54.881C135.858 54.179 135.733 53.3687 135.733 52.45C135.733 51.5313 135.858 50.721 136.11 50.019C136.37 49.317 136.751 48.7667 137.254 48.368C137.756 47.9693 138.363 47.77 139.074 47.77C139.784 47.77 140.391 47.9693 140.894 48.368C141.396 48.7667 141.773 49.317 142.025 50.019C142.285 50.721 142.415 51.5313 142.415 52.45C142.415 53.3687 142.285 54.179 142.025 54.881C141.773 55.583 141.396 56.1333 140.894 56.532C140.391 56.9307 139.784 57.13 139.074 57.13ZM139.074 55.882C139.706 55.882 140.196 55.583 140.543 54.985C140.898 54.387 141.076 53.542 141.076 52.45C141.076 51.358 140.898 50.513 140.543 49.915C140.196 49.317 139.706 49.018 139.074 49.018C138.441 49.018 137.947 49.317 137.592 49.915C137.245 50.513 137.072 51.358 137.072 52.45C137.072 53.542 137.245 54.387 137.592 54.985C137.947 55.583 138.441 55.882 139.074 55.882ZM146.958 57.13C146.247 57.13 145.64 56.9307 145.138 56.532C144.635 56.1333 144.254 55.583 143.994 54.881C143.742 54.179 143.617 53.3687 143.617 52.45C143.617 51.5313 143.742 50.721 143.994 50.019C144.254 49.317 144.635 48.7667 145.138 48.368C145.64 47.9693 146.247 47.77 146.958 47.77C147.668 47.77 148.275 47.9693 148.778 48.368C149.28 48.7667 149.657 49.317 149.909 50.019C150.169 50.721 150.299 51.5313 150.299 52.45C150.299 53.3687 150.169 54.179 149.909 54.881C149.657 55.583 149.28 56.1333 148.778 56.532C148.275 56.9307 147.668 57.13 146.958 57.13ZM146.958 55.882C147.59 55.882 148.08 55.583 148.427 54.985C148.782 54.387 148.96 53.542 148.96 52.45C148.96 51.358 148.782 50.513 148.427 49.915C148.08 49.317 147.59 49.018 146.958 49.018C146.325 49.018 145.831 49.317 145.476 49.915C145.129 50.513 144.956 51.358 144.956 52.45C144.956 53.542 145.129 54.387 145.476 54.985C145.831 55.583 146.325 55.882 146.958 55.882ZM153.801 47.9C153.975 47.9087 154.113 47.9737 154.217 48.095C154.33 48.2077 154.386 48.3507 154.386 48.524V56.376C154.386 56.5493 154.321 56.6967 154.191 56.818C154.061 56.9393 153.901 57 153.71 57C153.52 57 153.364 56.9393 153.242 56.818C153.121 56.6967 153.06 56.5493 153.06 56.376V49.616L151.916 50.305C151.821 50.3657 151.713 50.396 151.591 50.396C151.418 50.396 151.271 50.331 151.149 50.201C151.028 50.0623 150.967 49.915 150.967 49.759C150.967 49.655 150.998 49.5553 151.058 49.46C151.119 49.3647 151.197 49.2867 151.292 49.226L153.346 47.991C153.468 47.9303 153.619 47.9 153.801 47.9ZM156.929 51.774C156.721 51.774 156.561 51.7177 156.448 51.605C156.344 51.4923 156.292 51.3277 156.292 51.111V50.877C156.292 50.6603 156.344 50.4957 156.448 50.383C156.561 50.2703 156.721 50.214 156.929 50.214H157.072C157.28 50.214 157.436 50.2703 157.54 50.383C157.653 50.4957 157.709 50.6603 157.709 50.877V51.111C157.709 51.3277 157.653 51.4923 157.54 51.605C157.436 51.7177 157.28 51.774 157.072 51.774H156.929ZM156.929 57C156.721 57 156.561 56.9437 156.448 56.831C156.344 56.7097 156.292 56.545 156.292 56.337V56.09C156.292 55.882 156.344 55.7217 156.448 55.609C156.561 55.4877 156.721 55.427 156.929 55.427H157.072C157.28 55.427 157.436 55.4877 157.54 55.609C157.653 55.7217 157.709 55.882 157.709 56.09V56.337C157.709 56.545 157.653 56.7097 157.54 56.831C157.436 56.9437 157.28 57 157.072 57H156.929ZM166.137 56.064C166.215 56.168 166.254 56.2937 166.254 56.441C166.254 56.623 166.189 56.7703 166.059 56.883C165.938 56.9957 165.799 57.052 165.643 57.052C165.426 57.052 165.257 56.9653 165.136 56.792L162.614 53.412L160.144 56.779C160.014 56.961 159.845 57.052 159.637 57.052C159.481 57.052 159.347 57 159.234 56.896C159.13 56.7833 159.078 56.6577 159.078 56.519C159.078 56.3717 159.13 56.2287 159.234 56.09L161.899 52.463L159.221 48.862C159.134 48.7493 159.091 48.6237 159.091 48.485C159.091 48.3117 159.152 48.1643 159.273 48.043C159.403 47.9217 159.55 47.861 159.715 47.861C159.81 47.861 159.901 47.8827 159.988 47.926C160.083 47.9693 160.161 48.0343 160.222 48.121L162.718 51.475L165.188 48.16C165.335 47.9693 165.5 47.874 165.682 47.874C165.838 47.874 165.972 47.9347 166.085 48.056C166.206 48.1687 166.267 48.2987 166.267 48.446C166.267 48.576 166.224 48.7017 166.137 48.823L163.433 52.437L166.137 56.064ZM174.376 56.064C174.454 56.168 174.493 56.2937 174.493 56.441C174.493 56.623 174.428 56.7703 174.298 56.883C174.177 56.9957 174.038 57.052 173.882 57.052C173.666 57.052 173.497 56.9653 173.375 56.792L170.853 53.412L168.383 56.779C168.253 56.961 168.084 57.052 167.876 57.052C167.72 57.052 167.586 57 167.473 56.896C167.369 56.7833 167.317 56.6577 167.317 56.519C167.317 56.3717 167.369 56.2287 167.473 56.09L170.138 52.463L167.46 48.862C167.374 48.7493 167.33 48.6237 167.33 48.485C167.33 48.3117 167.391 48.1643 167.512 48.043C167.642 47.9217 167.79 47.861 167.954 47.861C168.05 47.861 168.141 47.8827 168.227 47.926C168.323 47.9693 168.401 48.0343 168.461 48.121L170.957 51.475L173.427 48.16C173.575 47.9693 173.739 47.874 173.921 47.874C174.077 47.874 174.212 47.9347 174.324 48.056C174.446 48.1687 174.506 48.2987 174.506 48.446C174.506 48.576 174.463 48.7017 174.376 48.823L171.672 52.437L174.376 56.064ZM182.615 56.064C182.693 56.168 182.732 56.2937 182.732 56.441C182.732 56.623 182.667 56.7703 182.537 56.883C182.416 56.9957 182.277 57.052 182.121 57.052C181.905 57.052 181.736 56.9653 181.614 56.792L179.092 53.412L176.622 56.779C176.492 56.961 176.323 57.052 176.115 57.052C175.959 57.052 175.825 57 175.712 56.896C175.608 56.7833 175.556 56.6577 175.556 56.519C175.556 56.3717 175.608 56.2287 175.712 56.09L178.377 52.463L175.699 48.862C175.613 48.7493 175.569 48.6237 175.569 48.485C175.569 48.3117 175.63 48.1643 175.751 48.043C175.881 47.9217 176.029 47.861 176.193 47.861C176.289 47.861 176.38 47.8827 176.466 47.926C176.562 47.9693 176.64 48.0343 176.7 48.121L179.196 51.475L181.666 48.16C181.814 47.9693 181.978 47.874 182.16 47.874C182.316 47.874 182.451 47.9347 182.563 48.056C182.685 48.1687 182.745 48.2987 182.745 48.446C182.745 48.576 182.702 48.7017 182.615 48.823L179.911 52.437L182.615 56.064ZM190.855 56.064C190.933 56.168 190.972 56.2937 190.972 56.441C190.972 56.623 190.907 56.7703 190.777 56.883C190.655 56.9957 190.517 57.052 190.361 57.052C190.144 57.052 189.975 56.9653 189.854 56.792L187.332 53.412L184.862 56.779C184.732 56.961 184.563 57.052 184.355 57.052C184.199 57.052 184.064 57 183.952 56.896C183.848 56.7833 183.796 56.6577 183.796 56.519C183.796 56.3717 183.848 56.2287 183.952 56.09L186.617 52.463L183.939 48.862C183.852 48.7493 183.809 48.6237 183.809 48.485C183.809 48.3117 183.869 48.1643 183.991 48.043C184.121 47.9217 184.268 47.861 184.433 47.861C184.528 47.861 184.619 47.8827 184.706 47.926C184.801 47.9693 184.879 48.0343 184.94 48.121L187.436 51.475L189.906 48.16C190.053 47.9693 190.218 47.874 190.4 47.874C190.556 47.874 190.69 47.9347 190.803 48.056C190.924 48.1687 190.985 48.2987 190.985 48.446C190.985 48.576 190.941 48.7017 190.855 48.823L188.151 52.437L190.855 56.064Z" fill="black"/>
<defs>
<filter id="filter0_d" x="30" y="133" width="38" height="38" filterUnits="userSpaceOnUse" color-interpolation-filters="sRGB">
<feFlood flood-opacity="0" result="BackgroundImageFix"/>
<feColorMatrix in="SourceAlpha" type="matrix" values="0 0 0 0 0 0 0 0 0 0 0 0 0 0 0 0 0 0 127 0" result="hardAlpha"/>
<feOffset dy="4"/>
<feGaussianBlur stdDeviation="2"/>
<feColorMatrix type="matrix" values="0 0 0 0 0 0 0 0 0 0 0 0 0 0 0 0 0 0 0.25 0"/>
<feBlend mode="normal" in2="BackgroundImageFix" result="effect1_dropShadow"/>
<feBlend mode="normal" in="SourceGraphic" in2="effect1_dropShadow" result="shape"/>
</filter>
<filter id="filter1_d" x="1" y="134" width="38" height="38" filterUnits="userSpaceOnUse" color-interpolation-filters="sRGB">
<feFlood flood-opacity="0" result="BackgroundImageFix"/>
<feColorMatrix in="SourceAlpha" type="matrix" values="0 0 0 0 0 0 0 0 0 0 0 0 0 0 0 0 0 0 127 0" result="hardAlpha"/>
<feOffset dy="4"/>
<feGaussianBlur stdDeviation="2"/>
<feColorMatrix type="matrix" values="0 0 0 0 0 0 0 0 0 0 0 0 0 0 0 0 0 0 0.25 0"/>
<feBlend mode="normal" in2="BackgroundImageFix" result="effect1_dropShadow"/>
<feBlend mode="normal" in="SourceGraphic" in2="effect1_dropShadow" result="shape"/>
</filter>
<filter id="filter2_d" x="195" y="0" width="38" height="38" filterUnits="userSpaceOnUse" color-interpolation-filters="sRGB">
<feFlood flood-opacity="0" result="BackgroundImageFix"/>
<feColorMatrix in="SourceAlpha" type="matrix" values="0 0 0 0 0 0 0 0 0 0 0 0 0 0 0 0 0 0 127 0" result="hardAlpha"/>
<feOffset dy="4"/>
<feGaussianBlur stdDeviation="2"/>
<feColorMatrix type="matrix" values="0 0 0 0 0 0 0 0 0 0 0 0 0 0 0 0 0 0 0.25 0"/>
<feBlend mode="normal" in2="BackgroundImageFix" result="effect1_dropShadow"/>
<feBlend mode="normal" in="SourceGraphic" in2="effect1_dropShadow" result="shape"/>
</filter>
<filter id="filter3_d" x="0" y="25" width="233" height="120" filterUnits="userSpaceOnUse" color-interpolation-filters="sRGB">
<feFlood flood-opacity="0" result="BackgroundImageFix"/>
<feColorMatrix in="SourceAlpha" type="matrix" values="0 0 0 0 0 0 0 0 0 0 0 0 0 0 0 0 0 0 127 0" result="hardAlpha"/>
<feOffset dy="4"/>
<feGaussianBlur stdDeviation="2"/>
<feColorMatrix type="matrix" values="0 0 0 0 0 0 0 0 0 0 0 0 0 0 0 0 0 0 0.25 0"/>
<feBlend mode="normal" in2="BackgroundImageFix" result="effect1_dropShadow"/>
<feBlend mode="normal" in="SourceGraphic" in2="effect1_dropShadow" result="shape"/>
</filter>
</defs>
</svg>
